<?xml version="1.0" encoding="utf-8"?>
<!-- Generator: Adobe Illustrator 21.1.0, SVG Export Plug-In . SVG Version: 6.00 Build 0)  -->
<svg version="1.1" id="Diagram" xmlns="http://www.w3.org/2000/svg" xmlns:xlink="http://www.w3.org/1999/xlink" x="0px" y="0px"
	 viewBox="0 0 1600 800" style="enable-background:new 0 0 1600 800;" xml:space="preserve">
<style type="text/css">
	.st0{clip-path:url(#SVGID_2_);}
	.st1{fill:#007CB2;}
	.st2{clip-path:url(#SVGID_4_);}
	.st3{fill:#EFB93F;}
	.st4{fill:#BBAA5E;}
	.st5{fill:#F5EFCA;}
	.st6{fill:#7F6E5D;}
	.st7{fill:#CBB292;}
	.st8{fill:#71C285;}
	.st9{fill:#F3D55B;}
	.st10{fill:#68AD77;}
	.st11{fill:#DDC357;}
	.st12{fill:#B0D3F0;}
	.st13{fill:#556080;}
	.st14{fill:#444E66;}
	.st15{fill:#D25627;}
	.st16{fill:#802D40;}
	.st17{fill:#FFFFFF;}
	.st18{fill:#50508A;}
	.st19{fill:#8697CB;}
	.st20{fill:#90BAE1;}
	.st21{fill:#ECF0F1;}
	.st22{fill:#5E5146;}
	.st23{fill:#E64C3C;}
	.st24{fill:#C03A2B;}
	.st25{fill:#F0785A;}
	.st26{fill:#B35A5B;}
	.st27{fill:#ED7161;}
	.st28{fill:#F0C419;}
	.st29{fill:#D36259;}
	.st30{fill:#CB8252;}
	.st31{fill:#24AE5F;}
	.st32{fill:#AFB9D2;}
	.st33{fill:#C7CFE2;}
	.st34{fill:#8F96AC;}
	.st35{fill:#9FA7BF;}
	.st36{fill:#707487;}
	.st37{fill:#FFCA4F;}
	.st38{fill:#666666;}
	.st39{fill:#FED198;}
	.st40{fill:#F0B97D;}
	.st41{fill:#F1F1F1;}
	.st42{fill:#15BDB1;}
	.st43{fill:#377BB9;}
	.st44{fill:#FBB429;}
	.st45{fill:#20D0C2;}
	.st46{fill:#C8CACC;}
	.st47{fill:#FF757C;}
	.st48{fill:#807D7D;}
	.st49{fill:#F5A209;}
	.st50{fill:#0E7886;}
	.st51{fill:#FF5B61;}
	.st52{fill:#D0D1D4;}
	.st53{fill:#333333;}
	.st54{fill:#324A5E;}
	.st55{fill:#84DBFF;}
	.st56{fill:#FFD05B;}
	.st57{fill:#ACB3BA;}
	.st58{fill:#E6E9EE;}
	.st59{fill:#315B42;}
	.st60{fill:#5B314C;}
	.st61{fill:#5B4C31;}
</style>
<title>diagram-jumbotron</title>
<g id="Background">
	<g>
		<defs>
			<rect id="SVGID_1_" x="700" y="-1" width="900" height="801"/>
		</defs>
		<clipPath id="SVGID_2_">
			<use xlink:href="#SVGID_1_"  style="overflow:visible;"/>
		</clipPath>
		<g class="st0">
			
				<rect x="822.2" y="-377.8" transform="matrix(0.7071 -0.7071 0.7071 0.7071 185.7841 1248.5262)" class="st1" width="1555.6" height="1555.6"/>
		</g>
	</g>
	<g>
		<defs>
			<rect id="SVGID_3_" y="-1" width="900" height="801"/>
		</defs>
		<clipPath id="SVGID_4_">
			<use xlink:href="#SVGID_3_"  style="overflow:visible;"/>
		</clipPath>
		<g class="st2">
			
				<rect x="-777.8" y="-377.8" transform="matrix(0.7071 -0.7071 0.7071 0.7071 -282.8459 117.155)" class="st3" width="1555.6" height="1555.6"/>
		</g>
	</g>
	<polygon class="st4" points="800,100 900,200 900,600 800,700 700,600 700,200 	"/>
</g>
<g id="Layer_1_1_">
	<path class="st5" d="M1201.4,433h-1.5c-5.8,0-10.6-4.7-10.6-10.5c0,0,0,0,0,0c0,5.9-4.8,10.6-10.6,10.6c-5.9,0-10.6-4.8-10.6-10.6
		c0,5.9-4.8,10.6-10.6,10.6c-5.9,0-10.6-4.8-10.6-10.6c0,5.8-4.8,10.5-10.6,10.5c0,0,0,0,0,0h-1.5c-5.8,0-10.6-4.7-10.6-10.5
		c0,0,0,0,0,0V490h88v-67.5C1212,428.3,1207.2,433,1201.4,433C1201.4,433,1201.4,433,1201.4,433z"/>
	<rect x="1130" y="441" class="st6" width="47" height="39"/>
	<path class="st7" d="M1178,481h-50v-42h50V481z M1131,478h44v-36h-44V478z"/>
	<path class="st7" d="M1137.6,454.3c-0.8,0-1.5-0.7-1.5-1.5c0-0.4,0.2-0.8,0.4-1.1l6-6c0.6-0.5,1.6-0.5,2.1,0.2c0.5,0.6,0.5,1.4,0,2
		l-6,6C1138.4,454.1,1138,454.3,1137.6,454.3z"/>
	<path class="st7" d="M1137.6,461.8c-0.8,0-1.5-0.7-1.5-1.5c0-0.4,0.2-0.8,0.4-1.1l3-3c0.5-0.6,1.5-0.7,2.1-0.2s0.7,1.5,0.2,2.1
		c0,0.1-0.1,0.1-0.2,0.2l-3,3C1138.4,461.7,1138,461.8,1137.6,461.8z"/>
	<path class="st7" d="M1143.6,455.8c-0.4,0-0.8-0.2-1.1-0.4c-0.3-0.3-0.4-0.7-0.4-1.1c0-0.8,0.7-1.5,1.5-1.5c0.8,0,1.5,0.7,1.5,1.5
		C1145.1,455.1,1144.4,455.8,1143.6,455.8L1143.6,455.8z"/>
	<path class="st7" d="M1146.6,452.8c-0.8,0-1.5-0.7-1.5-1.5c0-0.4,0.2-0.8,0.4-1.1l4.5-4.5c0.5-0.6,1.5-0.7,2.1-0.2s0.7,1.5,0.2,2.1
		c0,0.1-0.1,0.1-0.2,0.2l-4.5,4.5C1147.4,452.6,1147,452.8,1146.6,452.8z"/>
	<path class="st7" d="M1137.6,469.4c-0.8,0-1.5-0.7-1.5-1.5c0-0.4,0.2-0.8,0.4-1.1l13.6-13.6c0.5-0.6,1.5-0.7,2.1-0.2
		s0.7,1.5,0.2,2.1c0,0.1-0.1,0.1-0.2,0.2l-13.6,13.6C1138.4,469.2,1138,469.4,1137.6,469.4z"/>
	<path class="st7" d="M1154.2,452.8c-0.4,0-0.8-0.2-1.1-0.5c-0.3-0.3-0.4-0.7-0.4-1.1c0-0.8,0.7-1.5,1.5-1.5c0.8,0,1.5,0.7,1.5,1.5
		C1155.7,452.1,1155,452.8,1154.2,452.8L1154.2,452.8z"/>
	<path class="st7" d="M1136.1,486h-1.5c-0.8,0-1.5-0.7-1.5-1.5s0.7-1.5,1.5-1.5h1.5c0.8,0,1.5,0.7,1.5,1.5S1136.9,486,1136.1,486z"
		/>
	<path class="st7" d="M1130,486h-1.5c-0.8,0-1.5-0.7-1.5-1.5s0.7-1.5,1.5-1.5h1.5c0.8,0,1.5,0.7,1.5,1.5S1130.8,486,1130,486z"/>
	<path class="st7" d="M1140.6,490h-1.5c-0.8,0-1.5-0.7-1.5-1.5s0.7-1.5,1.5-1.5h1.5c0.8,0,1.5,0.7,1.5,1.5S1141.4,490,1140.6,490z"
		/>
	<path class="st7" d="M1128.5,490h-1.5c-0.8,0-1.5-0.7-1.5-1.5s0.7-1.5,1.5-1.5h1.5c0.8,0,1.5,0.7,1.5,1.5S1129.3,490,1128.5,490
		L1128.5,490z"/>
	<path class="st7" d="M1134.6,490h-1.5c-0.8,0-1.5-0.7-1.5-1.5s0.7-1.5,1.5-1.5h1.5c0.8,0,1.5,0.7,1.5,1.5S1135.4,490,1134.6,490z"
		/>
	<path class="st7" d="M1148.1,486h-1.5c-0.8,0-1.5-0.7-1.5-1.5s0.7-1.5,1.5-1.5h1.5c0.8,0,1.5,0.7,1.5,1.5S1149,486,1148.1,486z"/>
	<path class="st7" d="M1142.1,486h-1.5c-0.8,0-1.5-0.7-1.5-1.5s0.7-1.5,1.5-1.5h1.5c0.8,0,1.5,0.7,1.5,1.5S1142.9,486,1142.1,486z"
		/>
	<path class="st7" d="M1146.6,490h-1.5c-0.8,0-1.5-0.7-1.5-1.5s0.7-1.5,1.5-1.5h1.5c0.8,0,1.5,0.7,1.5,1.5S1147.5,490,1146.6,490z"
		/>
	<path class="st7" d="M1160.2,486h-1.5c-0.8,0-1.5-0.7-1.5-1.5s0.7-1.5,1.5-1.5h1.5c0.8,0,1.5,0.7,1.5,1.5S1161,486,1160.2,486z"/>
	<path class="st7" d="M1154.2,486h-1.5c-0.8,0-1.5-0.7-1.5-1.5s0.7-1.5,1.5-1.5h1.5c0.8,0,1.5,0.7,1.5,1.5S1155,486,1154.2,486z"/>
	<path class="st7" d="M1164.7,490h-1.5c-0.8,0-1.5-0.7-1.5-1.5s0.7-1.5,1.5-1.5h1.5c0.8,0,1.5,0.7,1.5,1.5S1165.6,490,1164.7,490z"
		/>
	<path class="st7" d="M1152.7,490h-1.5c-0.8,0-1.5-0.7-1.5-1.5s0.7-1.5,1.5-1.5h1.5c0.8,0,1.5,0.7,1.5,1.5S1153.5,490,1152.7,490z"
		/>
	<path class="st7" d="M1158.7,490h-1.5c-0.8,0-1.5-0.7-1.5-1.5s0.7-1.5,1.5-1.5h1.5c0.8,0,1.5,0.7,1.5,1.5S1159.5,490,1158.7,490z"
		/>
	<path class="st7" d="M1172.3,486h-1.5c-0.8,0-1.5-0.7-1.5-1.5s0.7-1.5,1.5-1.5h1.5c0.8,0,1.5,0.7,1.5,1.5S1173.1,486,1172.3,486z"
		/>
	<path class="st7" d="M1166.2,486h-1.5c-0.8,0-1.5-0.7-1.5-1.5s0.7-1.5,1.5-1.5h1.5c0.8,0,1.5,0.7,1.5,1.5S1167.1,486,1166.2,486z"
		/>
	<path class="st7" d="M1170.8,490h-1.5c-0.8,0-1.5-0.7-1.5-1.5s0.7-1.5,1.5-1.5h1.5c0.8,0,1.5,0.7,1.5,1.5S1171.6,490,1170.8,490z"
		/>
	<path class="st7" d="M1178.3,486h-1.5c-0.8,0-1.5-0.7-1.5-1.5s0.7-1.5,1.5-1.5h1.5c0.8,0,1.5,0.7,1.5,1.5S1179.1,486,1178.3,486z"
		/>
	<path class="st7" d="M1176.8,490h-1.5c-0.8,0-1.5-0.7-1.5-1.5s0.7-1.5,1.5-1.5h1.5c0.8,0,1.5,0.7,1.5,1.5S1177.6,490,1176.8,490z"
		/>
	<path class="st8" d="M1149.6,403h-4.6c-10,0.1-18.7,6.8-21.3,16.4c-0.3,1.2,0.1,0.6,0.4,0.6h43.9v-17H1149.6z"/>
	<path class="st9" d="M1192,420h19c0.3,0,0.6,0.3,0.4-0.5l0,0c-2.3-9.1-10.1-15.7-19.4-16.4V403h-24v17H1192z"/>
	<path class="st9" d="M1168,420h-21.6c1.8-9.8,10.4-17,20.4-17h1.3V420z"/>
	<path class="st8" d="M1189.6,420H1168v-17h1.3C1179.3,403,1187.9,410.2,1189.6,420z"/>
	<path class="st10" d="M1136.4,433h-1.9c-5.8,0-10.6-4.7-10.6-10.6v-3.2c0-0.1,0.1-0.2,0.2-0.2h22.8v3.4
		C1147,428.3,1142.3,433,1136.4,433L1136.4,433z"/>
	<path class="st11" d="M1157.5,433.6L1157.5,433.6c-5.8,0-10.5-4.7-10.5-10.6c0,0,0,0,0,0v-3h21v3
		C1168,428.8,1163.3,433.6,1157.5,433.6C1157.5,433.6,1157.5,433.6,1157.5,433.6z"/>
	<path class="st10" d="M1178.5,433.6L1178.5,433.6c-5.8,0-10.5-4.7-10.5-10.6c0,0,0,0,0,0v-3h21v3
		C1189,428.8,1184.3,433.6,1178.5,433.6C1178.5,433.6,1178.5,433.6,1178.5,433.6z"/>
	<path class="st11" d="M1201.4,433h-1.9c-5.8,0-10.6-4.7-10.6-10.6V419h22.8c0.1,0,0.2,0.1,0.2,0.2v3.2
		C1212,428.3,1207.3,433,1201.4,433L1201.4,433z"/>
	<path class="st6" d="M1206,489h-23v-38.5c0.1-6.3,5.2-11.4,11.5-11.3l0,0c6.3,0,11.4,5,11.5,11.3V489z"/>
	<path class="st7" d="M1207,491h-26v-39.6c-0.1-7.2,5.7-13.1,12.8-13.2s13.1,5.7,13.2,12.8V491z M1184,487h20v-36.6
		c0.1-5.5-4.3-10.1-9.8-10.2s-10.1,4.3-10.2,9.8V487z"/>
	<rect x="1183" y="466" class="st7" width="23" height="3"/>
	<rect x="1327" y="603" class="st12" width="94" height="70"/>
	<rect x="1324" y="598" class="st13" width="100" height="7"/>
	<rect x="1324" y="605" class="st13" width="3" height="69"/>
	<rect x="1421" y="605" class="st13" width="3" height="69"/>
	<rect x="1331" y="593" class="st14" width="87" height="5"/>
	<rect x="1326" y="675" class="st15" width="30" height="15"/>
	<path class="st15" d="M1357,692h-33v-18h33V692z M1327,689h27v-12h-27V689z"/>
	<rect x="1393" y="675" class="st15" width="30" height="15"/>
	<path class="st15" d="M1424,692h-33v-18h33V692z M1394,689h27v-12h-27V689z"/>
	<path class="st16" d="M1335.7,683h-1.7c-0.6,0.2-1.3-0.1-1.6-0.7c-0.1-0.2-0.1-0.4-0.1-0.6c0-0.9,0.7-1.7,1.7-1.7h1.7
		c0.9,0,1.7,0.8,1.7,1.7c0.1,0.7-0.4,1.3-1.1,1.3C1336.1,683.1,1335.9,683.1,1335.7,683z"/>
	<path class="st16" d="M1329,683h-1.7c-0.6,0.2-1.3-0.1-1.6-0.7c-0.1-0.2-0.1-0.4-0.1-0.6c0-0.9,0.7-1.7,1.7-1.7h1.7
		c0.9,0,1.7,0.8,1.7,1.7c0.1,0.7-0.4,1.3-1.1,1.4C1329.4,683.1,1329.2,683.1,1329,683z"/>
	<path class="st16" d="M1340.7,688h-1.7c-0.9,0.4-1.7-0.3-1.7-1.3c0-0.9,0.7-1.7,1.7-1.7h1.7c0.9,0,1.7,0.8,1.7,1.7
		C1342.4,687.7,1341.7,688.4,1340.7,688z"/>
	<path class="st16" d="M1327.3,688h-1.7c-0.9,0.4-1.7-0.3-1.7-1.3c0-0.9,0.7-1.7,1.7-1.7h1.7c0.9,0,1.7,0.8,1.7,1.7
		C1329,687.7,1328.3,688.4,1327.3,688z"/>
	<path class="st16" d="M1334,688h-1.7c-0.9,0.4-1.7-0.3-1.7-1.3c0-0.9,0.7-1.7,1.7-1.7h1.7c0.9,0,1.7,0.8,1.7,1.7
		C1335.7,687.7,1335,688.4,1334,688z"/>
	<path class="st16" d="M1349.1,683h-1.7c-0.6,0.2-1.3-0.1-1.6-0.7c-0.1-0.2-0.1-0.4-0.1-0.6c0-0.9,0.7-1.7,1.7-1.7h1.7
		c0.9,0,1.7,0.8,1.7,1.7c0.1,0.7-0.4,1.3-1.1,1.4C1349.5,683.1,1349.3,683.1,1349.1,683z"/>
	<path class="st16" d="M1355.8,683h-1.7c-0.6,0.2-1.3-0.1-1.6-0.7c-0.1-0.2-0.1-0.4-0.1-0.6c0-0.9,0.7-1.7,1.7-1.7h1.7
		c0.9,0,1.7,0.8,1.7,1.7c0.1,0.7-0.4,1.3-1.1,1.4C1356.2,683.1,1356,683.1,1355.8,683z"/>
	<path class="st16" d="M1342.4,683h-1.7c-0.6,0.2-1.3-0.1-1.6-0.7c-0.1-0.2-0.1-0.4-0.1-0.6c0-0.9,0.7-1.7,1.7-1.7h1.7
		c0.9,0,1.7,0.8,1.7,1.7c0.1,0.7-0.4,1.3-1.1,1.4C1342.8,683.1,1342.6,683.1,1342.4,683z"/>
	<path class="st16" d="M1354.1,688h-1.7c-0.9,0.4-1.7-0.3-1.7-1.3c0-0.9,0.7-1.7,1.7-1.7h1.7c0.9,0,1.7,0.8,1.7,1.7
		C1355.8,687.7,1355.1,688.4,1354.1,688z"/>
	<path class="st16" d="M1347.4,688h-1.7c-0.9,0.4-1.7-0.3-1.7-1.3c0-0.9,0.7-1.7,1.7-1.7h1.7c0.9,0,1.7,0.8,1.7,1.7
		C1349.1,687.7,1348.4,688.4,1347.4,688z"/>
	<path class="st16" d="M1339.1,678h-1.7c-0.6,0.2-1.4-0.1-1.6-0.7c-0.1-0.2-0.1-0.4-0.1-0.6c0-0.9,0.7-1.7,1.7-1.7h1.7
		c0.9,0,1.7,0.8,1.7,1.7c0.1,0.7-0.4,1.3-1.1,1.4C1339.4,678.1,1339.2,678.1,1339.1,678z"/>
	<path class="st16" d="M1332.4,678h-1.7c-0.6,0.2-1.4-0.1-1.6-0.7c-0.1-0.2-0.1-0.4-0.1-0.6c0-0.9,0.7-1.7,1.7-1.7h1.7
		c0.9,0,1.7,0.8,1.7,1.7c0.1,0.7-0.4,1.3-1.1,1.4C1332.7,678.1,1332.5,678.1,1332.4,678z"/>
	<path class="st16" d="M1352.4,678h-1.7c-0.6,0.2-1.4-0.1-1.6-0.7c-0.1-0.2-0.1-0.4-0.1-0.6c0-0.9,0.7-1.7,1.7-1.7h1.7
		c0.9,0,1.7,0.8,1.7,1.7c0.1,0.7-0.4,1.3-1.1,1.4C1352.8,678.1,1352.6,678.1,1352.4,678z"/>
	<path class="st16" d="M1345.8,678h-1.7c-0.6,0.2-1.4-0.1-1.6-0.7c-0.1-0.2-0.1-0.4-0.1-0.6c0-0.9,0.7-1.7,1.7-1.7h1.7
		c0.9,0,1.7,0.8,1.7,1.7c0.1,0.7-0.4,1.3-1.1,1.4C1346.1,678.1,1345.9,678.1,1345.8,678z"/>
	<path class="st16" d="M1402.7,683h-1.7c-0.6,0.2-1.3-0.1-1.6-0.7c-0.1-0.2-0.1-0.4-0.1-0.6c0-0.9,0.7-1.7,1.7-1.7h1.7
		c0.9,0,1.7,0.8,1.7,1.7c0.1,0.7-0.4,1.3-1.1,1.4C1403.1,683.1,1402.9,683.1,1402.7,683z"/>
	<path class="st16" d="M1396,683h-1.7c-0.6,0.2-1.3-0.1-1.6-0.7c-0.1-0.2-0.1-0.4-0.1-0.6c0-0.9,0.7-1.7,1.7-1.7h1.7
		c0.9,0,1.7,0.8,1.7,1.7c0.1,0.7-0.4,1.3-1.1,1.4C1396.4,683.1,1396.2,683.1,1396,683z"/>
	<path class="st16" d="M1407.7,688h-1.7c-0.9,0.4-1.7-0.3-1.7-1.3c0-0.9,0.7-1.7,1.7-1.7h1.7c0.9,0,1.7,0.8,1.7,1.7
		C1409.4,687.7,1408.6,688.4,1407.7,688z"/>
	<path class="st16" d="M1394.3,688h-1.7c-0.9,0.4-1.7-0.3-1.7-1.3c0-0.9,0.7-1.7,1.7-1.7h1.7c0.9,0,1.7,0.8,1.7,1.7
		C1396,687.7,1395.2,688.4,1394.3,688z"/>
	<path class="st16" d="M1401,688h-1.7c-0.9,0.4-1.7-0.3-1.7-1.3c0-0.9,0.7-1.7,1.7-1.7h1.7c0.9,0,1.7,0.8,1.7,1.7
		C1402.7,687.7,1401.9,688.4,1401,688z"/>
	<path class="st16" d="M1416.1,683h-1.7c-0.6,0.2-1.3-0.1-1.6-0.7c-0.1-0.2-0.1-0.4-0.1-0.6c0-0.9,0.7-1.7,1.7-1.7h1.7
		c0.9,0,1.7,0.8,1.7,1.7c0.1,0.7-0.4,1.3-1.1,1.4C1416.5,683.1,1416.2,683.1,1416.1,683z"/>
	<path class="st16" d="M1422.8,683h-1.7c-0.6,0.2-1.3-0.1-1.6-0.7c-0.1-0.2-0.1-0.4-0.1-0.6c0-0.9,0.7-1.7,1.7-1.7h1.7
		c0.9,0,1.7,0.8,1.7,1.7c0.1,0.7-0.4,1.3-1.1,1.4C1423.1,683.1,1422.9,683.1,1422.8,683z"/>
	<path class="st16" d="M1409.4,683h-1.7c-0.6,0.2-1.3-0.1-1.6-0.7c-0.1-0.2-0.1-0.4-0.1-0.6c0-0.9,0.7-1.7,1.7-1.7h1.7
		c0.9,0,1.7,0.8,1.7,1.7c0.1,0.7-0.4,1.3-1.1,1.4C1409.8,683.1,1409.5,683.1,1409.4,683z"/>
	<path class="st16" d="M1421.1,688h-1.7c-0.9,0.4-1.7-0.3-1.7-1.3c0-0.9,0.7-1.7,1.7-1.7h1.7c0.9,0,1.7,0.8,1.7,1.7
		C1422.8,687.7,1422,688.4,1421.1,688z"/>
	<path class="st16" d="M1414.4,688h-1.7c-0.9,0.4-1.7-0.3-1.7-1.3c0-0.9,0.7-1.7,1.7-1.7h1.7c0.9,0,1.7,0.8,1.7,1.7
		C1416.1,687.7,1415.3,688.4,1414.4,688z"/>
	<path class="st16" d="M1406,678h-1.7c-0.6,0.2-1.4-0.1-1.6-0.7c-0.1-0.2-0.1-0.4-0.1-0.6c0-0.9,0.7-1.7,1.7-1.7h1.7
		c0.9,0,1.7,0.8,1.7,1.7c0.1,0.7-0.4,1.3-1.1,1.4C1406.4,678.1,1406.2,678.1,1406,678z"/>
	<path class="st16" d="M1399.3,678h-1.7c-0.6,0.2-1.4-0.1-1.6-0.7c-0.1-0.2-0.1-0.4-0.1-0.6c0-0.9,0.7-1.7,1.7-1.7h1.7
		c0.9,0,1.7,0.8,1.7,1.7c0.1,0.7-0.4,1.3-1.1,1.4C1399.7,678.1,1399.5,678.1,1399.3,678z"/>
	<path class="st16" d="M1419.4,678h-1.7c-0.6,0.2-1.4-0.1-1.6-0.7c-0.1-0.2-0.1-0.4-0.1-0.6c0-0.9,0.7-1.7,1.7-1.7h1.7
		c0.9,0,1.7,0.8,1.7,1.7c0.1,0.7-0.4,1.3-1.1,1.4C1419.8,678.1,1419.6,678.1,1419.4,678z"/>
	<path class="st16" d="M1412.7,678h-1.7c-0.6,0.2-1.4-0.1-1.6-0.7c-0.1-0.2-0.1-0.4-0.1-0.6c0-0.9,0.7-1.7,1.7-1.7h1.7
		c0.9,0,1.7,0.8,1.7,1.7c0.1,0.7-0.4,1.3-1.1,1.4C1413,678.1,1412.9,678.1,1412.7,678z"/>
	<path class="st17" d="M1332.4,636.5c0.4,0,0.9-0.2,1.2-0.5l6.7-6.7c0.7-0.7,0.7-1.7,0-2.4s-1.7-0.7-2.4,0l-6.7,6.7
		c-0.7,0.6-0.7,1.7,0,2.4C1331.5,636.3,1331.9,636.5,1332.4,636.5L1332.4,636.5z"/>
	<path class="st17" d="M1332.4,644.9c0.4,0,0.9-0.2,1.2-0.5l3.3-3.3c0.7-0.7,0.7-1.7,0-2.4s-1.7-0.7-2.4,0l0,0l-3.3,3.3
		c-0.7,0.6-0.7,1.7,0,2.4C1331.5,644.7,1331.9,644.9,1332.4,644.9L1332.4,644.9z"/>
	<path class="st17" d="M1337.9,635.3c-0.3,0.3-0.5,0.7-0.5,1.2c0,0.4,0.2,0.9,0.5,1.2c0.3,0.3,0.7,0.5,1.2,0.5
		c0.9,0,1.7-0.7,1.7-1.6c0,0,0,0,0,0c0-0.9-0.7-1.7-1.7-1.7C1338.6,634.8,1338.2,635,1337.9,635.3L1337.9,635.3z"/>
	<path class="st17" d="M1341.2,634.3c0.6,0.7,1.7,0.7,2.4,0c0,0,0,0,0,0l5-5c0.7-0.7,0.7-1.7,0-2.4s-1.7-0.7-2.4,0l-5,5
		C1340.6,632.6,1340.6,633.7,1341.2,634.3C1341.2,634.3,1341.2,634.3,1341.2,634.3z"/>
	<path class="st17" d="M1346.2,635.3l-15.1,15.1c-0.7,0.7-0.7,1.7,0,2.4s1.7,0.7,2.4,0l0,0l15.1-15.1c0.7-0.7,0.7-1.7,0-2.4
		S1346.9,634.7,1346.2,635.3z"/>
	<path class="st17" d="M1349.6,632c-0.6,0.7-0.6,1.7,0,2.4c0.7,0.6,1.7,0.6,2.4,0c0.6-0.7,0.6-1.7,0-2.3
		C1351.3,631.4,1350.3,631.4,1349.6,632z"/>
	<path class="st17" d="M1397.6,636.5c0.4,0,0.9-0.2,1.2-0.5l6.7-6.7c0.7-0.7,0.7-1.7,0-2.4s-1.7-0.7-2.4,0l-6.7,6.7
		c-0.7,0.6-0.7,1.7,0,2.4C1396.7,636.3,1397.2,636.5,1397.6,636.5L1397.6,636.5z"/>
	<path class="st17" d="M1397.6,644.9c0.4,0,0.9-0.2,1.2-0.5l3.3-3.3c0.7-0.7,0.7-1.7,0-2.4s-1.7-0.7-2.4,0l0,0l-3.3,3.3
		c-0.7,0.6-0.7,1.7,0,2.4C1396.7,644.7,1397.2,644.9,1397.6,644.9L1397.6,644.9z"/>
	<path class="st17" d="M1403.2,635.3c-0.6,0.7-0.6,1.7,0,2.4c0.3,0.3,0.7,0.5,1.2,0.5c0.9,0,1.7-0.7,1.7-1.7c0-0.9-0.7-1.7-1.7-1.7
		C1403.9,634.8,1403.5,635,1403.2,635.3L1403.2,635.3z"/>
	<path class="st17" d="M1406.5,634.3c0.6,0.7,1.7,0.7,2.4,0c0,0,0,0,0,0l5-5c0.7-0.7,0.7-1.7,0-2.4s-1.7-0.7-2.4,0l-5,5
		C1405.8,632.6,1405.8,633.7,1406.5,634.3C1406.5,634.3,1406.5,634.3,1406.5,634.3z"/>
	<path class="st17" d="M1411.5,635.3l-15.1,15.1c-0.7,0.7-0.7,1.7,0,2.4s1.7,0.7,2.4,0l15.1-15.1c0.7-0.7,0.7-1.7,0-2.4
		S1412.2,634.7,1411.5,635.3z"/>
	<path class="st17" d="M1417.2,632c-0.7-0.6-1.7-0.6-2.4,0c-0.6,0.7-0.6,1.7,0,2.4c0.7,0.7,1.7,0.7,2.4,0S1417.9,632.7,1417.2,632z"
		/>
	<polygon class="st14" points="1356,608 1356,623 1356,638.2 1356,692 1393,692 1393,638.2 1393,623 1393,608 	"/>
	<rect x="1363" y="658" class="st12" width="23" height="27"/>
	<polyline class="st12" points="1363,622 1363,650 1386,650 1386,622 	"/>
	<path class="st18" d="M1333,621.7L1333,621.7c-3.3,0-6-2.6-6-5.9c0,0,0,0,0,0V605h12v10.9C1339,619.2,1336.3,621.8,1333,621.7
		C1333,621.7,1333,621.7,1333,621.7z"/>
	<path class="st19" d="M1345,621.7L1345,621.7c-3.3,0-6-2.6-6-5.9c0,0,0,0,0,0V605h12v10.9C1351,619.2,1348.3,621.8,1345,621.7
		C1345,621.7,1345,621.7,1345,621.7z"/>
	<path class="st18" d="M1357,621.7L1357,621.7c-3.3,0-6-2.6-6-5.9c0,0,0,0,0,0V605h12v10.9C1363,619.2,1360.3,621.8,1357,621.7
		C1357,621.7,1357,621.7,1357,621.7z"/>
	<path class="st19" d="M1368,621.7L1368,621.7c-3.3,0-6-2.6-6-5.9c0,0,0,0,0,0V605h12v10.9C1374,619.2,1371.3,621.8,1368,621.7
		C1368,621.7,1368,621.7,1368,621.7z"/>
	<path class="st18" d="M1380,621.7L1380,621.7c-3.3,0-6-2.6-6-5.9c0,0,0,0,0,0V605h12v10.9C1386,619.2,1383.3,621.8,1380,621.7
		C1380,621.7,1380,621.7,1380,621.7z"/>
	<path class="st19" d="M1392,621.7L1392,621.7c-3.3,0-6-2.6-6-5.9c0,0,0,0,0,0V605h12v10.9C1398,619.2,1395.3,621.8,1392,621.7
		C1392,621.7,1392,621.7,1392,621.7z"/>
	<path class="st18" d="M1404,621.7L1404,621.7c-3.3,0-6-2.6-6-5.9c0,0,0,0,0,0V605h12v10.9C1410,619.2,1407.3,621.8,1404,621.7
		C1404,621.7,1404,621.7,1404,621.7z"/>
	<path class="st19" d="M1415,621.7L1415,621.7c-3.3,0-6-2.6-6-5.9c0,0,0,0,0,0V605h12v10.9C1421,619.2,1418.3,621.8,1415,621.7
		C1415,621.7,1415,621.7,1415,621.7z"/>
	<polygon class="st7" points="989,241 989,280.7 989,346 1124,346 1124,280.7 1124,241 	"/>
	<rect x="994" y="241" class="st20" width="23" height="84"/>
	<path class="st21" d="M1012,245v75h-14v-75H1012 M1017,241h-23v84h23V241z"/>
	<rect x="1068" y="241" class="st20" width="49" height="84"/>
	<path class="st21" d="M1113,245v75h-40v-75H1113 M1117,241h-49v84h49V241z"/>
	<rect x="1022" y="241" class="st21" width="37" height="105"/>
	<rect x="1026" y="294" class="st20" width="28" height="47"/>
	<path class="st17" d="M1082,285.1c0.6,0,1.2-0.2,1.7-0.7l9.3-9.3c0.9-0.9,0.9-2.4,0-3.3s-2.4-0.9-3.3,0l0,0l-9.3,9.3
		c-0.9,0.9-0.9,2.4,0,3.3C1080.7,284.9,1081.4,285.1,1082,285.1L1082,285.1z"/>
	<path class="st17" d="M1082,296.8c0.6,0,1.2-0.2,1.7-0.7l4.7-4.7c0.9-0.9,0.9-2.4,0-3.3s-2.4-0.9-3.3,0l0,0l-4.7,4.7
		c-0.9,0.9-0.9,2.4,0,3.3C1080.7,296.6,1081.4,296.8,1082,296.8L1082,296.8z"/>
	<path class="st17" d="M1089.7,283.5c-0.4,0.4-0.7,1-0.7,1.7c0,1.3,1.1,2.3,2.3,2.3c1.3,0,2.3-1.1,2.3-2.3s-1.1-2.3-2.3-2.3
		C1090.7,282.8,1090.1,283,1089.7,283.5z"/>
	<path class="st17" d="M1094.4,282.1c0.9,0.9,2.4,0.9,3.3,0c0,0,0,0,0,0l7-7c0.9-0.9,0.9-2.4,0-3.3s-2.4-0.9-3.3,0l-7,7
		C1093.5,279.7,1093.5,281.2,1094.4,282.1C1094.4,282.1,1094.4,282.1,1094.4,282.1z"/>
	<path class="st17" d="M1101.4,283.5l-21,21c-0.9,0.9-0.9,2.4,0,3.3s2.4,0.9,3.3,0l21-21c0.9-0.9,0.9-2.4,0-3.3
		S1102.3,282.6,1101.4,283.5z"/>
	<path class="st17" d="M1109.3,278.8c-0.9-0.9-2.4-0.9-3.3,0c-0.4,0.4-0.7,1-0.7,1.7c0,1.3,1,2.3,2.3,2.3c0,0,0,0,0,0
		c0.6,0,1.2-0.2,1.7-0.7c0.4-0.4,0.7-1,0.7-1.7C1110,279.8,1109.8,279.2,1109.3,278.8z"/>
	<rect x="989" y="332" class="st6" width="33" height="14"/>
	<rect x="1059" y="332" class="st6" width="65" height="14"/>
	<rect x="998" y="332" class="st22" width="5" height="14"/>
	<rect x="1007" y="332" class="st22" width="5" height="14"/>
	<rect x="1068" y="332" class="st22" width="5" height="14"/>
	<rect x="1077" y="332" class="st22" width="5" height="14"/>
	<rect x="1087" y="332" class="st22" width="5" height="14"/>
	<rect x="1096" y="332" class="st22" width="5" height="14"/>
	<rect x="1105" y="332" class="st22" width="5" height="14"/>
	<rect x="1115" y="332" class="st22" width="5" height="14"/>
	<path class="st20" d="M1040,257.1c-5.4,0-10.4-2.6-13.4-7.1h-0.6v40h28v-40h-0.6C1050.4,254.4,1045.4,257.1,1040,257.1z"/>
	<path class="st23" d="M1028,210h-7c-15.2,0.1-28.5,10.4-32.4,25.1c-0.5,1.8,0.2,0.9,0.6,0.9h66.8v-26H1028z"/>
	<path class="st9" d="M1094,236h29.2c0.4,0,0.9,0.4,0.6-0.8v-0.1c-3.6-13.8-15.6-23.9-29.8-25V210h-37v26H1094L1094,236z"/>
	<path class="st9" d="M1056,236h-33.1c2.7-15.1,15.8-26,31.1-26h1.9V236z"/>
	<path class="st23" d="M1089.1,236H1056v-26h1.9C1073.2,210,1086.4,220.9,1089.1,236z"/>
	<path class="st24" d="M1007.7,257h-2.3c-9,0-16.3-7.3-16.3-16.3c0,0,0,0,0,0v-4.3c0-0.2,0.2-0.4,0.4-0.4h34.6v4.7
		C1024,249.7,1016.7,257,1007.7,257z"/>
	<path class="st11" d="M1040.5,257L1040.5,257c-9.1,0-16.5-7.3-16.5-16.3c0,0,0,0,0,0V236h33v4.7C1057,249.7,1049.6,257,1040.5,257
		C1040.5,257,1040.5,257,1040.5,257z"/>
	<path class="st24" d="M1072.5,257L1072.5,257c-9.1,0-16.5-7.3-16.5-16.3c0,0,0,0,0,0V236h33v4.7C1089,249.7,1081.6,257,1072.5,257
		C1072.5,257,1072.5,257,1072.5,257z"/>
	<path class="st11" d="M1107.7,257h-2.3c-9,0-16.3-7.3-16.3-16.3c0,0,0,0,0,0V236h34.6c0.2,0,0.4,0.2,0.4,0.4v4.3
		C1124,249.7,1116.7,257,1107.7,257C1107.7,257,1107.7,257,1107.7,257z"/>
	<polygon class="st25" points="1388.9,303 1388.9,319.9 1388.9,332.7 1388.9,378 1396.9,378 1475.6,378 1475.6,319.9 1475.6,303 	
		"/>
	<rect x="1392.3" y="331.5" class="st26" width="45.1" height="36.8"/>
	<rect x="1395.8" y="334.3" class="st12" width="38.2" height="30.5"/>
	<path class="st27" d="M1409.6,302.4h-21.5c-0.2,0-0.4-0.2-0.4-0.5c0,0,0-0.1,0-0.1l6.4-13.9c0.8-1.7,2.5-2.9,4.5-2.9h14.2
		L1409.6,302.4z"/>
	<polygon class="st27" points="1454,302.4 1431.9,302.4 1431.9,285 1450.8,285 	"/>
	<path class="st28" d="M1420.8,324.8L1420.8,324.8c-6.2,0-11.1-5-11.1-11.2c0,0,0,0,0,0v-11.2h22.2v11.2
		C1431.9,319.7,1426.9,324.7,1420.8,324.8C1420.8,324.8,1420.8,324.8,1420.8,324.8z"/>
	<path class="st28" d="M1465.9,324.8L1465.9,324.8c-6.2,0-11.1-5-11.1-11.2c0,0,0,0,0,0v-11.2h22c0.1,0,0.2,0.1,0.2,0.2c0,0,0,0,0,0
		v11C1477,319.7,1472.1,324.7,1465.9,324.8C1465.9,324.8,1465.9,324.8,1465.9,324.8z"/>
	<polygon class="st9" points="1431.9,302.4 1409.8,302.4 1413,285 1431.9,285 	"/>
	<path class="st9" d="M1476.2,302.4h-21.5l-3.2-17.4h14.2c1.9,0,3.7,1.1,4.5,2.9l6.4,14C1476.7,302.1,1476.5,302.3,1476.2,302.4
		C1476.3,302.3,1476.2,302.3,1476.2,302.4z"/>
	<path class="st29" d="M1398.6,324.8L1398.6,324.8c-6.2,0-11.1-5-11.1-11.2c0,0,0,0,0,0v-10.8c0-0.2,0.2-0.4,0.4-0.5h21.8v11.2
		C1409.7,319.7,1404.7,324.7,1398.6,324.8C1398.6,324.8,1398.6,324.8,1398.6,324.8z"/>
	<path class="st29" d="M1443.7,324.8L1443.7,324.8c-6.2,0-11.1-5-11.1-11.2c0,0,0,0,0,0v-11.2h22.2v11.2
		C1454.8,319.7,1449.9,324.7,1443.7,324.8C1443.7,324.8,1443.7,324.8,1443.7,324.8z"/>
	<rect x="1443" y="331.5" class="st26" width="25.7" height="46.5"/>
	<rect x="1446.5" y="334.3" class="st12" width="19.4" height="40.2"/>
	<path class="st17" d="M1461,358.9v-5.3c0-0.7,0.4-1.3,1-1.5c0.9-0.4,1.9,0,2.3,0.9c0.1,0.2,0.2,0.5,0.2,0.7v5.2
		c0,1-0.8,1.7-1.8,1.7c-0.2,0-0.5-0.1-0.7-0.2C1461.4,360.1,1461,359.5,1461,358.9z"/>
	<path class="st17" d="M1412.9,345.8c0.4,0,0.8-0.2,1.1-0.5l6.4-6.4c0.6-0.7,0.5-1.7-0.1-2.3c-0.6-0.6-1.5-0.6-2.1,0l-6.4,6.4
		c-0.6,0.6-0.6,1.6,0,2.3C1412.1,345.7,1412.5,345.8,1412.9,345.8z"/>
	<path class="st17" d="M1412.9,353.8c0.4,0,0.8-0.2,1.1-0.5l3.2-3.2c0.6-0.7,0.5-1.7-0.1-2.3c-0.6-0.6-1.5-0.6-2.1,0l-3.2,3.2
		c-0.6,0.6-0.6,1.6,0,2.3C1412.1,353.7,1412.5,353.8,1412.9,353.8z"/>
	<path class="st17" d="M1418.2,344.7c-0.3,0.3-0.5,0.7-0.5,1.1c0,0.9,0.7,1.6,1.6,1.6c0.9,0,1.6-0.7,1.6-1.6s-0.7-1.6-1.6-1.6
		C1418.9,344.2,1418.5,344.4,1418.2,344.7L1418.2,344.7z"/>
	<path class="st17" d="M1421.4,343.8c0.6,0.6,1.6,0.6,2.3,0l4.8-4.8c0.7-0.6,0.7-1.6,0.1-2.3s-1.6-0.7-2.3-0.1c0,0-0.1,0.1-0.1,0.1
		l-4.8,4.8C1420.8,342.1,1420.8,343.1,1421.4,343.8z"/>
	<path class="st17" d="M1426.2,344.7l-14.4,14.4c-0.7,0.6-0.7,1.6-0.1,2.3s1.6,0.7,2.3,0.1c0,0,0.1-0.1,0.1-0.1l14.4-14.4
		c0.6-0.7,0.5-1.7-0.1-2.3C1427.8,344.1,1426.8,344.1,1426.2,344.7z"/>
	<path class="st17" d="M1431.7,341.5c-0.6-0.6-1.7-0.7-2.3,0c-0.6,0.6-0.7,1.7,0,2.3c0.6,0.6,1.7,0.7,2.3,0c0.3-0.3,0.5-0.7,0.5-1.2
		C1432.1,342.2,1432,341.8,1431.7,341.5z"/>
	<path class="st30" d="M1397,378h-9.7l-1.5-8.9c-0.1-0.4,0.2-0.7,0.6-0.8c0,0,0.1,0,0.1,0h12.1L1397,378z"/>
	<rect x="1390.2" y="350.9" class="st6" width="3.5" height="17.4"/>
	<path class="st31" d="M1398.8,343.7c0.6-1.2,0.8-2.6,0.6-3.9c-0.1-0.6-0.4-1.1-0.7-1.5c-0.6-0.8-0.9-1.8-0.7-2.7
		c0.2-0.9,0.1-1.9-0.3-2.8c-0.8-1.4-2.2-2.4-3.8-2.5c-1.1-0.2-2.3,0.1-3.2,0.9l-1,0.9c-1.2,0.6-2,1.7-2.2,3
		c-0.1,0.7-0.1,1.5,0.1,2.2c0.3,1,0.1,2.2-0.5,3c-1.4,2.1-1.7,4.7-0.7,7.1c0.1,0.3,0.3,0.6,0.5,0.8c0.7,0.9,0.9,2,0.6,3.1
		c-0.1,0.2-0.1,0.5-0.1,0.8c0,1.2,0.1,2.3,0.4,3.5c0.1,1.2,0.6,2.3,1.4,3.2c1.2,1,2.9,0.6,4.2-0.1c2-1,3.6-2.7,4.3-4.8
		c0.4-1.3,0.3-2.7-0.2-4c-0.6-1.2-0.5-2.6,0.2-3.7C1398.1,345.3,1398.5,344.5,1398.8,343.7z"/>
	<path class="st32" d="M1392.5,52.4L1392.5,52.4c-1.4,0-2.5,1.2-2.5,2.6v29h5V55C1395,53.6,1393.9,52.4,1392.5,52.4z"/>
	<path class="st32" d="M1402.5,62.4L1402.5,62.4c-1.4,0-2.5,1.2-2.5,2.6v29h5V65C1405,63.6,1403.9,62.4,1402.5,62.4z"/>
	<path class="st33" d="M1384,78h34.4c1.5,0,2.6,1.2,2.6,2.6l0,0V189h-37V78z"/>
	<rect x="1384" y="178" class="st32" width="37" height="11"/>
	<rect x="1382" y="168" class="st32" width="40" height="5"/>
	<rect x="1411" y="168" class="st34" width="5" height="5"/>
	<rect x="1390" y="168" class="st34" width="5" height="5"/>
	<rect x="1400" y="168" class="st34" width="5" height="5"/>
	<rect x="1382" y="158" class="st32" width="40" height="5"/>
	<rect x="1411" y="158" class="st34" width="5" height="5"/>
	<rect x="1390" y="158" class="st34" width="5" height="5"/>
	<rect x="1400" y="158" class="st34" width="5" height="5"/>
	<rect x="1382" y="147" class="st32" width="40" height="5"/>
	<rect x="1411" y="147" class="st34" width="5" height="5"/>
	<rect x="1390" y="147" class="st34" width="5" height="5"/>
	<rect x="1400" y="147" class="st34" width="5" height="5"/>
	<rect x="1382" y="137" class="st32" width="40" height="5"/>
	<rect x="1411" y="137" class="st34" width="5" height="5"/>
	<rect x="1390" y="137" class="st34" width="5" height="5"/>
	<rect x="1400" y="137" class="st34" width="5" height="5"/>
	<rect x="1382" y="126" class="st32" width="40" height="5"/>
	<rect x="1411" y="126" class="st34" width="5" height="5"/>
	<rect x="1390" y="126" class="st34" width="5" height="5"/>
	<rect x="1400" y="126" class="st34" width="5" height="5"/>
	<rect x="1382" y="116" class="st32" width="40" height="5"/>
	<rect x="1411" y="116" class="st34" width="5" height="5"/>
	<rect x="1390" y="116" class="st34" width="5" height="5"/>
	<rect x="1400" y="116" class="st34" width="5" height="5"/>
	<rect x="1382" y="105" class="st32" width="40" height="5"/>
	<rect x="1411" y="105" class="st34" width="5" height="5"/>
	<rect x="1390" y="105" class="st34" width="5" height="5"/>
	<rect x="1400" y="105" class="st34" width="5" height="5"/>
	<rect x="1382" y="94" class="st32" width="40" height="5"/>
	<rect x="1411" y="94" class="st34" width="5" height="5"/>
	<rect x="1390" y="94" class="st34" width="5" height="5"/>
	<rect x="1400" y="94" class="st34" width="5" height="5"/>
	<rect x="1382" y="84" class="st32" width="40" height="5"/>
	<rect x="1411" y="84" class="st34" width="5" height="5"/>
	<rect x="1390" y="84" class="st34" width="5" height="5"/>
	<rect x="1400" y="84" class="st34" width="5" height="5"/>
	<path class="st32" d="M1385,189h-79V41.6c0-1.5,1.2-2.6,2.6-2.6l0,0h73.7c1.5,0,2.6,1.2,2.6,2.6v0L1385,189z"/>
	<path class="st34" d="M1313.5,162.8L1313.5,162.8c-1.4,0-2.5-1.2-2.5-2.6V54.8c0-1.4,1.1-2.6,2.5-2.6l0,0c1.4,0,2.5,1.2,2.5,2.6
		v105.3C1316,161.6,1314.9,162.7,1313.5,162.8z"/>
	<rect x="1306" y="168" class="st35" width="79" height="21"/>
	<path class="st36" d="M1316,186v-10.5c0-1.3-0.8-2.4-2.1-2.6c-1.4-0.2-2.7,0.7-2.9,2.1c0,0.2,0,0.3,0,0.5V186H1316z"/>
	<path class="st34" d="M1323.5,162.8L1323.5,162.8c-1.4,0-2.5-1.2-2.5-2.6V54.8c0-1.4,1.1-2.6,2.5-2.6l0,0c1.4,0,2.5,1.2,2.5,2.6
		v105.3C1326,161.6,1324.9,162.7,1323.5,162.8z"/>
	<path class="st36" d="M1326,186v-10.5c0-1.3-0.8-2.4-2.1-2.6c-1.4-0.2-2.7,0.7-2.9,2.1c0,0.2,0,0.3,0,0.5V186H1326z"/>
	<path class="st34" d="M1334.5,162.8L1334.5,162.8c-1.4,0-2.5-1.2-2.5-2.6V54.8c0-1.4,1.1-2.6,2.5-2.6l0,0c1.4,0,2.5,1.2,2.5,2.6
		v105.3C1337,161.6,1335.9,162.7,1334.5,162.8z"/>
	<path class="st36" d="M1337,186v-10.5c0-1.3-0.8-2.4-2.1-2.6c-1.4-0.2-2.7,0.7-2.9,2.1c0,0.2,0,0.3,0,0.5V186H1337z"/>
	<path class="st34" d="M1345.5,162.8L1345.5,162.8c-1.4,0-2.5-1.2-2.5-2.6V54.8c0-1.4,1.1-2.6,2.5-2.6l0,0c1.4,0,2.5,1.2,2.5,2.6
		v105.3C1348,161.6,1346.9,162.7,1345.5,162.8z"/>
	<path class="st36" d="M1348,186v-10.5c0-1.3-0.8-2.4-2.1-2.6c-1.4-0.2-2.7,0.7-2.9,2.1c0,0.2,0,0.3,0,0.5V186H1348z"/>
	<path class="st34" d="M1355.5,162.8L1355.5,162.8c-1.4,0-2.5-1.2-2.5-2.6V54.8c0-1.4,1.1-2.6,2.5-2.6l0,0c1.4,0,2.5,1.2,2.5,2.6
		v105.3C1358,161.6,1356.9,162.7,1355.5,162.8z"/>
	<path class="st36" d="M1358,186v-10.5c0-1.3-0.8-2.4-2.1-2.6c-1.4-0.2-2.7,0.7-2.9,2.1c0,0.2,0,0.3,0,0.5V186H1358z"/>
	<path class="st34" d="M1366.5,162.8L1366.5,162.8c-1.4,0-2.5-1.2-2.5-2.6V54.8c0-1.4,1.1-2.6,2.5-2.6l0,0c1.4,0,2.5,1.2,2.5,2.6
		v105.3C1369,161.6,1367.9,162.7,1366.5,162.8z"/>
	<path class="st36" d="M1369,186v-10.5c0-1.3-0.8-2.4-2.1-2.6c-1.4-0.2-2.7,0.7-2.9,2.1c0,0.2,0,0.3,0,0.5V186H1369z"/>
	<path class="st34" d="M1376.5,162.8L1376.5,162.8c-1.4,0-2.5-1.2-2.5-2.6V54.8c0-1.4,1.1-2.6,2.5-2.6l0,0c1.4,0,2.5,1.2,2.5,2.6
		v105.3C1379,161.6,1377.9,162.7,1376.5,162.8z"/>
	<path class="st36" d="M1379,186v-10.5c0-1.3-0.8-2.4-2.1-2.6c-1.4-0.2-2.7,0.7-2.9,2.1c0,0.2,0,0.3,0,0.5V186H1379z"/>
	<rect x="1311" y="152" class="st36" width="5" height="5"/>
	<rect x="1321" y="152" class="st36" width="5" height="5"/>
	<rect x="1332" y="152" class="st36" width="5" height="5"/>
	<rect x="1343" y="152" class="st36" width="5" height="5"/>
	<rect x="1353" y="152" class="st36" width="5" height="5"/>
	<rect x="1364" y="152" class="st36" width="5" height="5"/>
	<rect x="1374" y="152" class="st36" width="5" height="5"/>
	<rect x="1311" y="137" class="st36" width="5" height="5"/>
	<rect x="1321" y="137" class="st36" width="5" height="5"/>
	<rect x="1332" y="137" class="st36" width="5" height="5"/>
	<rect x="1343" y="137" class="st36" width="5" height="5"/>
	<rect x="1353" y="137" class="st36" width="5" height="5"/>
	<rect x="1364" y="137" class="st36" width="5" height="5"/>
	<rect x="1374" y="137" class="st36" width="5" height="5"/>
	<rect x="1311" y="121" class="st36" width="5" height="5"/>
	<rect x="1321" y="121" class="st36" width="5" height="5"/>
	<rect x="1332" y="121" class="st36" width="5" height="5"/>
	<rect x="1343" y="121" class="st36" width="5" height="5"/>
	<rect x="1353" y="121" class="st36" width="5" height="5"/>
	<rect x="1364" y="121" class="st36" width="5" height="5"/>
	<rect x="1374" y="121" class="st36" width="5" height="5"/>
	<rect x="1311" y="105" class="st36" width="5" height="5"/>
	<rect x="1321" y="105" class="st36" width="5" height="5"/>
	<rect x="1332" y="105" class="st36" width="5" height="5"/>
	<rect x="1343" y="105" class="st36" width="5" height="5"/>
	<rect x="1353" y="105" class="st36" width="5" height="5"/>
	<rect x="1364" y="105" class="st36" width="5" height="5"/>
	<rect x="1374" y="105" class="st36" width="5" height="5"/>
	<rect x="1311" y="89" class="st36" width="5" height="5"/>
	<rect x="1321" y="89" class="st36" width="5" height="5"/>
	<rect x="1332" y="89" class="st36" width="5" height="5"/>
	<rect x="1343" y="89" class="st36" width="5" height="5"/>
	<rect x="1353" y="89" class="st36" width="5" height="5"/>
	<rect x="1364" y="89" class="st36" width="5" height="5"/>
	<rect x="1374" y="89" class="st36" width="5" height="5"/>
	<rect x="1311" y="73" class="st36" width="5" height="5"/>
	<rect x="1321" y="73" class="st36" width="5" height="5"/>
	<rect x="1332" y="73" class="st36" width="5" height="5"/>
	<rect x="1343" y="73" class="st36" width="5" height="5"/>
	<rect x="1353" y="73" class="st36" width="5" height="5"/>
	<rect x="1364" y="73" class="st36" width="5" height="5"/>
	<rect x="1374" y="73" class="st36" width="5" height="5"/>
	<rect x="1311" y="58" class="st36" width="5" height="5"/>
	<rect x="1321" y="58" class="st36" width="5" height="5"/>
	<rect x="1332" y="58" class="st36" width="5" height="5"/>
	<rect x="1343" y="58" class="st36" width="5" height="5"/>
	<rect x="1353" y="58" class="st36" width="5" height="5"/>
	<rect x="1364" y="58" class="st36" width="5" height="5"/>
	<rect x="1374" y="58" class="st36" width="5" height="5"/>
	<path class="st34" d="M1385,47h-79v-5.4c0-1.5,1.2-2.6,2.6-2.6l0,0h73.7c1.5,0,2.6,1.2,2.6,2.6v0L1385,47z"/>
	<path class="st34" d="M1424,192h-121.1c-1.4,0-2.6-1.1-2.6-2.5l0,0c0-1.4,1.2-2.5,2.6-2.5H1424c1.4,0,2.6,1.1,2.6,2.5l0,0
		C1426.6,190.9,1425.4,192,1424,192z"/>
	<path class="st37" d="M503.8,241.4c34.2,0,62-27.8,62-62s-27.8-62-62-62s-62,27.8-62,62C441.9,213.6,469.6,241.4,503.8,241.4z"/>
	<path class="st38" d="M484.2,176.3c2.8-4.7,7.3-10.2,2.8-18.6c-6.6-29,24-34.9,28.6-22.9c7.5,2.8,7.3,18.5,3.5,26.6
		c-0.2,3.4-3.7,6.3,2.6,15l0.5-0.1l0,0C513.9,178.7,492.9,177.6,484.2,176.3L484.2,176.3L484.2,176.3z"/>
	<path class="st39" d="M492.3,161.2c2.3,4.9,3.2,6.7,6,8.9c-0.7,12.4-10.1,6.5-17.1,17.6c-1.6,3.4-2.9,6.9-4.1,10.5
		c16.2,10.6,37.2,10.6,53.5,0c-1.2-3.6-2.6-7.1-4.1-10.5c-6.9-11.2-16.4-5.3-17.1-17.6c2.9-2.2,3.7-4.1,6-8.9
		c0.6,0.3,1.2,0.7,1.6,0.2c0.5-0.5,2.6-7.2,2.2-8.1s-0.8-0.3-1.4,0.1c0-0.2-0.5,2.4-0.5,2c0.1-3.2-2.2-6-2.9-14.3
		c-6.6,12.2-25.5,7.2-24.7,12.3c-3.7-2.6,0.8,7.9,0.9,8C491.1,161.9,491.7,161.5,492.3,161.2L492.3,161.2z"/>
	<path class="st40" d="M498.3,170.2c-0.2,3.1-0.9,5-2,6.4l7.7,4.2l7.5-3.9c-1.2-1.4-2-3.4-2.2-6.7c0,0-3.2,2.4-5.6,2.4
		S498.2,170.1,498.3,170.2L498.3,170.2z"/>
	<path class="st41" d="M497.2,175.1c-1.7,3.7-5.3,4.1-9.2,6.2l15.6,25h0.2c1,0,2.1,0,3.1-0.1l12.7-24.9c-4-2.2-7.8-2.5-9.4-6.7
		l-6.4,4.2L497.2,175.1L497.2,175.1L497.2,175.1z"/>
	<path class="st17" d="M497.5,173.5l-1.6,3.3l4.7,8l3.1-6.1L497.5,173.5z M510.1,173.5L510.1,173.5l1.6,3.2l-4.8,8l-3.1-6.1
		L510.1,173.5z"/>
	<path class="st42" d="M493.3,178.4c-4,1.9-10.7,2.6-15.3,9.1c-1,1.9-1.9,3.8-2.7,5.8c-5.6,6.6-13,15.5-13.1,16.9
		c-0.2,2.3-0.5,3.9-0.4,4.4c0.2,0.4,4,15.5,4,15.5l13.9,0.3l-4.3-17.5l7.4-6.5v29.1h42v-29.1l7.4,6.5l-4.3,17.5l13.9-0.3
		c0,0,3.8-15,4-15.5c0.2-0.5-0.2-2.1-0.3-4.4c-0.1-1.4-7.5-10.3-13.2-16.9c-0.8-2-1.7-3.9-2.7-5.8c-4.6-6.5-11.3-7.2-15.3-9.1
		l-8.1,15.5l-2.3,3.4l-2.2-3.4L493.3,178.4L493.3,178.4z"/>
	<path class="st21" d="M473.6,225.3c3.9,0,7.1,2,7.1,4.4s-3.2,4.4-7.1,4.4s-7.1-2-7.1-4.4S469.7,225.3,473.6,225.3z M473.6,226.4
		L473.6,226.4c-3.1,0-5.5,1.5-5.5,3.2s2.5,3.2,5.5,3.2s5.5-1.5,5.5-3.2S476.7,226.4,473.6,226.4L473.6,226.4z"/>
	<path class="st43" d="M473.6,232.9c3.1,0,5.5-1.5,5.5-3.2s-2.5-3.2-5.5-3.2s-5.5,1.5-5.5,3.2S470.6,232.9,473.6,232.9z"/>
	<path class="st44" d="M471.7,231.4v3.7c-0.4,0.4-1.2,0.3-1.2,0.3h-1.4c-0.5,0.1-1,0-1.4-0.3v-5.5c0.3-0.1,0.7-0.1,1-0.2v-1.2
		c-0.4-1,1.5-1.8,1.5-1.8h11.6c0,0,1.9,0.7,0.9,1.8v1.2c1,0.1,1,0.2,1,0.2v5.5c0,0.4-0.8,0.3-0.8,0.3h-1.4c-0.4,0-0.8-0.4-0.8-0.8
		v-3.2h-1v3.2c0,0.4-0.4,0.8-0.8,0.8h-1.4c-0.4,0-0.8-0.4-0.8-0.8v-3.2h-1v3.2c0,0.4-0.4,0.8-0.8,0.8h-1.7c0,0-0.8,0.2-0.5-0.3v-3.7
		H471.7z"/>
	<path class="st21" d="M534,225.3c-3.9,0-7.1,2-7.1,4.4s3.2,4.4,7.1,4.4s7.1-2,7.1-4.4S538,225.3,534,225.3z M534,226.4L534,226.4
		c3.1,0,5.5,1.5,5.5,3.2s-2.5,3.2-5.5,3.2s-5.5-1.5-5.5-3.2S531,226.4,534,226.4L534,226.4z"/>
	<path class="st43" d="M534,232.9c3,0,5.5-1.5,5.5-3.2s-2.5-3.2-5.5-3.2c-3.1,0-5.5,1.5-5.5,3.2S531,232.9,534,232.9z"/>
	<path class="st44" d="M535.7,231.4v3.7c0.4,0.3,0.9,0.4,1.3,0.3h1.4c0,0,0.8,0.2,0.2-0.3v-5.5c0.6-0.1,0.5-0.2,1-0.2v-1.2
		c-0.5-1-2.3-1.8-2.3-1.8h-11.6c0,0-1.9,0.7-2.1,1.8v1.2c0.2,0.1,0.2,0.2,1,0.2v5.5c-0.8,0.4,0,0.3,0,0.3h1.2c0.4,0,0.8-0.4,0.8-0.8
		v-3.2h1v3.2c0,0.4,0.4,0.8,0.8,0.8h1.4c0.4,0,0.8-0.4,0.8-0.8v-3.2h1v3.2c0,0.4,0.4,0.8,0.8,0.8h1.8c0,0,0.8,0.2,0.4-0.3v-3.7
		H535.7L535.7,231.4z"/>
	<path class="st45" d="M494.4,178.2l9.5,18.5l9.3-18.5c0.5,0.3,1,0.6,1.5,0.8l-10.8,21.2L493,178.9
		C493.5,178.7,493.9,178.5,494.4,178.2L494.4,178.2z"/>
	<path class="st17" d="M472.5,189.4H536c2,0,3.7,1.7,3.7,3.7v35.6c0,2-1.7,3.7-3.7,3.7h-63.6c-2,0-3.7-1.7-3.7-3.7v-35.6
		C468.7,191,470.4,189.4,472.5,189.4z"/>
	<path class="st46" d="M470.1,233.4h68.2c0.8,0,1.4,0.6,1.4,1.4l0,0v3.2c0,0.8-0.6,1.4-1.4,1.4l0,0h-68.2c-0.8,0-1.4-0.6-1.4-1.4
		l0,0v-3.2C468.7,234,469.4,233.4,470.1,233.4z"/>
	<path class="st21" d="M478.7,231.4h6v4h-6V231.4z M522.7,231.4h6v4h-6V231.4z"/>
	<path class="st21" d="M497.1,205.4h13.3c0.2,0,0.3,0.1,0.3,0.3v3.4c0,0.2-0.1,0.3-0.3,0.3h-13.3c-0.2,0-0.3-0.1-0.3-0.3v-3.4
		C496.7,205.5,496.9,205.4,497.1,205.4z"/>
	<path class="st47" d="M142.9,169.5c31.1,0,56.2-25.2,56.2-56.2S174,57,142.9,57s-56.2,25.2-56.2,56.2l0,0
		C86.7,144.3,111.8,169.4,142.9,169.5z"/>
	<path class="st46" d="M134.7,136l-2.4,8.1l-8.3,6.1v1.8h37v-1.8l-7.5-6.1l-2.4-8.1H134.7z"/>
	<path class="st17" d="M124,151v1h37v-1H124z"/>
	<path class="st38" d="M101,69h83c2.8,0,5,2.2,5,5v51H96V74C96,71.2,98.2,69,101,69z"/>
	<path class="st42" d="M99,122h87V73.6c0-0.9-0.7-1.6-1.6-1.6h-83.8c-0.9,0-1.6,0.7-1.6,1.6V122z"/>
	<path class="st45" d="M127,125h39.2l-29.7-27.6l-14,13.9L127,125z"/>
	<path class="st48" d="M127,125h39.2l-3.6-3h-36.7L127,125z"/>
	<path class="st17" d="M132.4,107.2c1.9-1.9,1.9-4.9,0-6.8c0,0,0,0,0,0c-1.2-1.2-3-1.7-4.7-1.3l-1.6-1.6c-0.2-0.2-0.5-0.2-0.7,0
		l-2.5,2.5c-0.2,0.2-0.2,0.5,0,0.7l1.5,1.5c-0.6,1.8-0.1,3.7,1.2,5C127.4,109,130.4,109.1,132.4,107.2
		C132.3,107.3,132.3,107.3,132.4,107.2L132.4,107.2z"/>
	<path class="st44" d="M126.2,94l-3.6-3.6c-1.2-1.2-3.2-1.2-4.4,0l-2.6,2.5c-1.2,1.2-1.2,3.2,0,4.5l3.6,3.6c-0.8,3.2,0,6.9,3.3,10.3
		l14-13.9C133.2,94,129.4,93.2,126.2,94L126.2,94z"/>
	<path class="st49" d="M115.7,92.9L115.7,92.9c-1.3,1.3-1.3,3.3-0.1,4.5l3.6,3.6c-0.8,3.2,0,6.9,3.3,10.3l0.4-0.4
		c-3.1-3.4-3.8-7.1-3-10.3l-3.8-3.8C115.2,95.8,115,94.2,115.7,92.9z"/>
	<path class="st17" d="M189,125v5.2c0,2.6-2.5,4.8-5.5,4.8h-82.1c-3,0-5.5-2.1-5.5-4.8V125H189z"/>
	<path class="st50" d="M118.5,94.9L104,120v29h4.9l-2-29l13.5-24.1C120.8,94.8,119.1,94,118.5,94.9z"/>
	<path class="st48" d="M87,156h112v-5H87V156z"/>
	<path class="st44" d="M124.4,149H97.6c-2,0-4.4,3-2.4,3H126C128,152,126.4,149,124.4,149z"/>
	<path class="st44" d="M105.6,117.8c-1.1,0-2,0.9-2,2s0.9,2,2,2s2-0.9,2-2S106.7,117.8,105.6,117.8z"/>
	<path class="st17" d="M105.6,118.9c-0.6,0-1,0.4-1,1s0.4,1,1,1s1-0.4,1-1S106.1,118.9,105.6,118.9z"/>
	<path class="st51" d="M120,148.1l-5-0.9v1.7h5V148.1z"/>
	<path class="st17" d="M136,138h9c0.6,0,1,0.4,1,1v12c0,0.6-0.4,1-1,1h-9c-0.6,0-1-0.4-1-1v-12C135,138.4,135.4,138,136,138z"/>
	<path class="st21" d="M146,141h2.5c0.8,0,1.5,0.6,1.5,1.3v6.3c0,0.8-0.7,1.4-1.5,1.3H146v-1h2.5c0.1,0,0.5-0.1,0.5-0.3v-6.4
		c0-0.2-0.3-0.3-0.5-0.3H146V141z"/>
	<path class="st21" d="M145,152v-14h0.1c0.4-0.1,0.9,0.2,0.9,0.6c0,0.1,0,0.1,0,0.2v11.8C146,151.1,145.6,151.6,145,152L145,152z"/>
	<path class="st45" d="M138,144h3v3h-3V144z"/>
	<path class="st42" d="M138.5,144h2.8l-0.2,1h-2.4L138.5,144z"/>
	<path class="st44" d="M139,138v6c1,0.1,0.8,0.1,1,0v-6H139z"/>
	<path class="st38" d="M96,158h94v-2H96V158z"/>
	<path class="st52" d="M142.9,131.6c0.9,0,1.6-0.7,1.6-1.6s-0.7-1.6-1.6-1.6c-0.9,0-1.6,0.7-1.6,1.6S142,131.6,142.9,131.6
		L142.9,131.6z"/>
	<path class="st45" d="M157.5,135H186v1c-1.2,1.5-1.2,3.6,0,5.1v1h-28.5C153,142,153,135,157.5,135z"/>
	<path class="st17" d="M184.5,141c-1.2-1.5-1.2-3.5,0-5h-28.1c-1.4,0-2.5,1.1-2.5,2.5s1.1,2.5,2.5,2.5H184.5z"/>
	<path class="st21" d="M185.5,136c0.2-0.3,0.3-0.6,0.3-1h-30.5c-2.9,0.6-3.7,4.7-0.8,5.9c-2-1-1.3-4.3,0.9-4.9H185.5z"/>
	<path class="st21" d="M185.2,136h-31.9c0.1,0.4,0.1,0.4,0.2,0h31.8c0,0.2,0,0.3-0.1,0.5L185.2,136z M153.1,137v-0.1
		c0,0.1-0.1,0.1-0.1-0.9h32c0,1,0,1,0.1,1H153.1z M152.8,138v-0.5C152.8,137.7,152.8,137.8,152.8,138h32c0-0.4,0-0.4,0,0H152.8z
		 M152.7,139v-0.9c0,0.1,0,0.1,0.3,0.2V138h31.8c0,0.2,0,0.1,0,1H152.7z M152.7,139v-0.3c0,0.1,0,0.1,0-0.7h32.1c0,0.8,0,0.7,0,1
		H152.7z M152.9,140v-0.7c0,0.1,0.1,0.1,0.1-0.3h32c0,0.4,0,0.3-0.1,1H152.9z M153.2,140v-0.1c0,0.1,0.1,0.1,0.2-0.9h31.9
		c0,1-0.1,0.9-0.1,1H153.2z M153.7,141v-0.6c0.1,0.1,0.2,0.1,0.3,0.6h31.5c0-0.4-0.1-0.5-0.1,0H153.7z"/>
	<path class="st51" d="M190,142h-37v1.4c1.6,2.1,1.6,5.1,0,7.2v1.4h37C195.8,152,195.8,142,190,142z"/>
	<path class="st17" d="M152.9,150c1.5-2.1,1.5-4.9,0-7h35.8c1.9,0.3,3.3,2,3,4c-0.2,1.6-1.5,2.8-3,3H152.9z"/>
	<path class="st21" d="M153.4,144c-0.1-0.3-0.2-0.7-0.3-1h35.4c3.4,0.3,4.3,5.7,0.9,7.1c2.3-1.2,1.5-5.5-1-6.1H153.4z"/>
	<path class="st21" d="M153.8,144h37c-0.1,0.4-0.1,0.4-0.2,0h-36.9c0,0.2,0,0.4,0.1,0.5V144z M191,146v-1c0,0.1,0.1,0.2,0.1,0H154
		c-0.1,0.3-0.1,0.7-0.1,1H191z M191.3,146v-0.2c0,0.1,0,0.2,0.1-0.8h-37.2c0,0.3,0,0.7,0,1H191.3z M191.4,147v-0.5
		c0,0.1,0,0.2,0,0.2V146h-37.2c0,0.7,0,0.6,0,1H191.4z M191.4,147v0.3C191.4,147.4,191.4,147.5,191.4,147h-37.2c0,0.5,0,0.4,0,0
		H191.4z M191.2,149v-1c0,0.1-0.1,0.2-0.1,0H154c0.1,0.3,0.1,0.7,0.1,1H191.2z M190.9,149v-0.2c-0.1,0.1-0.1,0.2-0.2-0.8h-37
		c0,1,0.1,0.9,0.1,1H190.9z M190.2,150v-0.4c-0.1,0.1-0.2,0.2-0.4-0.6h-36.5c0,0.3,0.1,0.7,0.1,1H190.2z"/>
	<path class="st44" d="M182,127h-22v1c1,1.6,1,3.5,0,5.1v1h22C185.4,134.1,185.4,127.1,182,127L182,127z"/>
	<path class="st17" d="M160.5,133c0.9-1.5,0.9-3.5,0-5h21.7c1,0,1.9,1.1,1.9,2.5s-0.8,2.5-1.9,2.5H160.5z"/>
	<path class="st21" d="M159.7,128c-0.1,0.4-0.1,0.2-0.2,0H183c2.2,0.1,2.9,4.2,0.6,5.4c1.6-1,1-4.3-0.7-5.4H159.7z"/>
	<path class="st21" d="M160,128h24.6c0,1-0.1,0.9-0.1,1h-24.6C159.9,128.9,159.9,129,160,128z M184.8,130v-0.6
		C184.9,129.6,184.9,129.8,184.8,130h-24.7c0-0.4,0-0.5-0.1,0H184.8z M185,131v-1c0,0.1,0,0.1,0,0h-24.8c0,0.1,0,0.1,0,1H185z
		 M185.1,131v-0.4c0,0.1,0,0.1-0.1,0.2V130h-24.8c0,0.7,0,0.7,0,1H185.1z M185.1,132v-0.8c0,0.1,0,0.1,0-0.2h-24.8c0,0.3,0,0.2,0,1
		H185.1z M185,132v-0.2c0,0.1,0,0.1-0.1-0.8h-24.8c0,0.3,0,0.7,0,1H185z M184.7,132v0.4c0,0.1-0.1,0.1-0.1-0.4H160
		c0,0.5,0,0.4,0.1,0H184.7z M184.3,134v-1c-0.1,0.1-0.1,0.1-0.2,0h-24.4c0,0.1,0.1,0,0.1,1H184.3z"/>
	<path class="st17" d="M119.4,94.8c-0.3,0-0.6,0.3-0.6,0.6s0.3,0.6,0.6,0.6s0.6-0.3,0.6-0.6S119.8,94.8,119.4,94.8L119.4,94.8z"/>
	<path class="st37" d="M471.6,598.9c28.3,0,51.3-23,51.3-51.3s-23-51.3-51.3-51.3c-28.3,0-51.3,23-51.3,51.3l0,0
		C420.4,575.9,443.3,598.9,471.6,598.9z"/>
	<path class="st40" d="M466.8,535.1h9.6l0.8,8.1l1.4,1.1l2.9,1.8l-9.9,23.3l-9.8-23.3l2.9-1.8l1.4-1.1L466.8,535.1L466.8,535.1z"/>
	<path class="st42" d="M463.8,545.3l-14,4.5c-1,0.6-1.7,1.6-2.1,2.8c-4.2,4.5-17.6,19.1-17.6,22.8c0,4.4,11.4,15,11.4,15.4h5.6v3.4
		h49.6v-3.4h5c0-0.4,11.4-11,11.4-15.4c0-3.7-13.4-18.4-17.6-22.8c-0.3-1.1-1.1-2.1-2.1-2.8l-14-4.4l-1.2,3.5l-6.7-0.3l-6.6,0.3
		L463.8,545.3L463.8,545.3z M447,570.9L447,570.9l1.7,6.9l-0.3,7.3l-1.4-1.6l-5-7.1L447,570.9L447,570.9z M496.3,583.6L496.3,583.6
		l-1.4,1.5l-0.3-8.5l1.7-5.7l5,5.5L496.3,583.6z"/>
	<path class="st41" d="M463.7,544.9l-1.9,0.6l9.8,23.9l9.9-23.8l-2-0.6l-4.9,3h-5.9L463.7,544.9L463.7,544.9z"/>
	<path class="st45" d="M463.8,545.3l-3,1l-0.6,7.7c0,0,0.2,0.6,0.6,0.6l2.7,1c0.1,0.1,0.1,0.3,0,0.4l-2.3,1.6l8,15.2
		c0.8,0,1.5,0.1,2.3,0.1s1.5,0,2.3-0.1l8.1-15.2l-2.3-1.6c-0.1-0.1-0.1-0.3,0-0.4l2.7-1c0.5,0.1,0.6-0.6,0.6-0.6l-0.6-7.7l-2.9-0.9
		l-7.9,23.2L463.8,545.3L463.8,545.3z"/>
	<path class="st39" d="M482.8,519.1c0,0.8,0.3,1.5,0.2,2.2c2.6-0.5,1.3,7.1-0.1,8.2c-0.1,0.1-0.4-0.1-0.6-0.3
		c-0.5,2.8-4.8,10.3-7.5,13.4c-0.8,0.9-5.4,0.9-6.1,0c-2.8-3.1-7.1-10.7-7.6-13.5c-0.2,0.2-0.5,0.3-0.6,0.3c-1.5-1-2.7-8.7-0.1-8.2
		c0-0.7,0.2-1.5,0.2-2.2c0.1-5.9,5.5-8.9,11.1-8.9C477.3,510.2,482.6,513.2,482.8,519.1L482.8,519.1z"/>
	<path class="st38" d="M479.3,511.5c2.1,0.1,3.9,1.8,4.1,3.9c0.2,2,0.3,4,0.2,5.9c-1,0.3-1.8,1.1-1.9,2.2c-0.2,1.8-0.1,1.8-0.1,1.8
		l-0.6-0.1l-0.4-3c-2.6-1.6,0-4-2.5-4.5c-6.9,4.9-13,4.1-15.8,1.8c0,0,0.6,2.4,0.1,3.3c-0.3,0.7-0.4,1.5-0.2,2.2h-0.6
		c0,0,0.1-3.6-1.3-3.6C454.8,512.4,472,501.3,479.3,511.5L479.3,511.5z"/>
	<path class="st17" d="M466,542.5c-0.7,1-1.5,2-2.3,2.9l2.2,7.4l5.8-4.3C468.4,546.8,466.5,544.8,466,542.5L466,542.5z"/>
	<path class="st17" d="M477.3,542.5c0.7,1,1.5,2,2.3,2.9l-2.2,7.4l-5.8-4.3C474.8,546.8,476.7,544.8,477.3,542.5L477.3,542.5z"/>
	<path class="st21" d="M446.5,586.1c3.3,0,5.9,1.7,5.9,3.7s-2.6,3.7-5.9,3.7s-5.9-1.7-5.9-3.7S443.2,586.1,446.5,586.1z
		 M446.5,587.1L446.5,587.1c-2.6,0-4.6,1.2-4.6,2.7s2.1,2.7,4.6,2.7s4.6-1.2,4.6-2.7S449,587.1,446.5,587.1L446.5,587.1z"/>
	<path class="st43" d="M446.5,592.5c2.5,0,4.6-1.2,4.6-2.7s-2.1-2.7-4.6-2.7s-4.6,1.2-4.6,2.7S443.9,592.5,446.5,592.5z"/>
	<path class="st44" d="M444.6,591.6v2.8c0,0.4-0.3,0.7-0.7,0.7h-1.2c0,0-0.7-0.4-0.7-0.7v-4.6c0.1-0.1,0.1-0.1,0.9-0.2v-1
		c-0.8-0.9,0.8-1.2,0.8-1.2h9.6c0,0,1.6,0.3,1.5,1.2v1c0.1,0.1,0.1,0.1,0.9,0.2v4.6c-0.8,0.4-1.4,0.7-1.4,0.7h-1.3
		c-0.4,0-0.6-0.3-0.6-0.7v-2.8h-0.9v2.8c0,0.4-0.3,0.7-0.7,0.7h-1.2c-0.4,0-0.7-0.3-0.7-0.7v-2.8H448v2.8c0,0.4-0.3,0.7-0.7,0.7
		h-1.2c-0.4,0-0.7-0.3-0.7-0.7v-2.8H444.6z"/>
	<path class="st21" d="M496.8,586.1c-3.3,0-5.9,1.7-5.9,3.7s2.6,3.7,5.9,3.7c3.3,0,5.9-1.7,5.9-3.7S500.1,586.1,496.8,586.1z
		 M496.8,587.1L496.8,587.1c2.5,0,4.6,1.2,4.6,2.7s-2.1,2.7-4.6,2.7c-2.6,0-4.6-1.2-4.6-2.7S494.2,587.1,496.8,587.1L496.8,587.1z"
		/>
	<path class="st53" d="M496.8,592.5c2.5,0,4.6-1.2,4.6-2.7s-2.1-2.7-4.6-2.7c-2.5,0-4.6,1.2-4.6,2.7S494.2,592.5,496.8,592.5z"/>
	<path class="st44" d="M498.5,591.6v2.8c0,0.4,0.3,0.7,0.7,0.7h1.4c0,0,0.7-0.4,0.5-0.7v-4.6c0.1-0.1,0.1-0.1,0.9-0.2v-1
		c-0.6-0.6-1.4-1-2.3-1.2h-9.7c0,0-1.6,0.3-1.7,1.2v1c0.1,0.1,0.1,0.1,0.9,0.2v4.6c-0.7,0.4,0,0.7,0,0.7h1.1c0.4,0,0.7-0.3,0.7-0.7
		v-2.8h0.9v2.8c0,0.4,0.3,0.7,0.7,0.7h1.2c0.4,0,0.7-0.3,0.7-0.7v-2.8h0.9v2.8c0,0.4,0.3,0.7,0.7,0.7h1.2c0.4,0,0.7-0.3,0.7-0.7
		v-2.8H498.5z"/>
	<path class="st17" d="M445.1,557.3H498c1.7,0,3.1,1.4,3.1,3.1v28.9c0,1.7-1.4,3.1-3.1,3.1h-52.9c-1.7,0-3.1-1.4-3.1-3.1v-28.9
		C442,558.7,443.4,557.3,445.1,557.3C445.1,557.3,445.1,557.3,445.1,557.3z"/>
	<path class="st46" d="M443.2,594.1h56.7c0.6,0,1.2,0.5,1.2,1.2v2c0,0.6-0.5,1.2-1.2,1.2h-56.7c-0.6,0-1.2-0.5-1.2-1.2v-1.9
		C442,594.7,442.5,594.2,443.2,594.1C443.2,594.1,443.2,594.1,443.2,594.1z"/>
	<path class="st21" d="M450.6,592.4h5.1v3.4h-5.1V592.4z M487.3,592.4h5.1v3.4h-5.2L487.3,592.4z"/>
	<path class="st21" d="M466.1,570.2h11.1c0.1,0.5,0.3,0.7,0.8,0.8v2.5c-0.5,0.2-0.6,0.3-0.8,0.1h-11.1c-0.1,0.2-0.3,0.1-0.1-0.1V571
		C465.8,570.9,465.9,570.8,466.1,570.2z"/>
	<path class="st47" d="M189,702c41.7,0,75.5-33.8,75.5-75.5c0-41.7-33.8-75.5-75.5-75.5c-41.7,0-75.5,33.8-75.5,75.5c0,0,0,0,0,0
		C113.6,668.2,147.3,701.9,189,702z"/>
	<path class="st38" d="M165.1,622.6c3.4-5.8,8.9-12.5,3.4-22.7c-8.1-35.4,29.2-42.6,34.9-28c9.2,3.5,8.9,22.5,4.2,32.5
		c-0.2,4.1-4.5,7.7,3.2,18.3l0.5-0.1l0,0C201.3,625.5,175.7,624.1,165.1,622.6L165.1,622.6L165.1,622.6z"/>
	<path class="st39" d="M174.9,604.3c2.8,5.9,3.9,8.2,7.4,10.9c-0.8,15-12.4,7.9-20.8,21.5c-1.9,4.2-3.6,8.4-5,12.8
		c19.8,12.9,45.4,12.9,65.2,0c-1.4-4.4-3.1-8.6-5-12.8c-8.5-13.6-20-6.5-20.8-21.5c3.5-2.7,4.5-5,7.4-10.9c0.7,0.4,1.4,0.8,2,0.2
		s3.2-8.8,2.7-9.9s-1-0.4-1.7,0.1c0-0.2-0.6,3-0.6,2.5c0.1-3.9-2.7-7.3-3.6-17.5c-8,14.8-31.1,8.7-30.1,15c-4.5-3.2,1,9.7,1.1,9.8
		c0.6,0.6,1.3,0.1,2-0.2H174.9z"/>
	<path class="st40" d="M182.3,615.1c-0.2,3.7-1.1,6.1-2.4,7.8l9.4,5.2l9.2-4.8c-1.5-1.7-2.5-4.1-2.7-8.1c0,0-3.9,2.9-6.9,2.9
		S182.3,615.2,182.3,615.1L182.3,615.1z"/>
	<path class="st41" d="M181,621.2c-2.1,4.5-6.5,5.1-11.2,7.6l19,30.5h0.2c1.3,0,2.5,0,3.8-0.1l15.5-30.3c-4.9-2.6-9.5-3.1-11.5-8.2
		l-7.8,5.1L181,621.2L181,621.2L181,621.2z"/>
	<path class="st17" d="M181.3,619.3l-1.9,4l5.8,9.7l3.8-7.4L181.3,619.3z M196.7,619.3L196.7,619.3l2,4l-5.8,9.8l-3.8-7.4
		L196.7,619.3z"/>
	<path class="st42" d="M176.2,625.1c-4.9,2.3-13.1,3.2-18.6,11.1c-1.3,2.3-2.4,4.6-3.3,7c-6.9,8-15.9,18.9-16,20.6
		c-0.2,2.8-0.6,4.8-0.4,5.3s4.9,18.8,4.9,18.8l16.9,0.3l-5.3-21.3l9-7.9v35.5h51.2v-35.5l9,7.9l-5.3,21.3l16.9-0.3
		c0,0,4.7-18.3,4.9-18.8s-0.2-2.5-0.4-5.3c-0.1-1.7-9.2-12.6-16-20.6c-1-2.4-2.1-4.7-3.3-7c-5.6-7.9-13.8-8.8-18.7-11.1l-9.8,18.8
		l-2.8,4.1l-2.7-4.2L176.2,625.1L176.2,625.1L176.2,625.1z"/>
	<path class="st21" d="M152.2,682.3c4.8,0,8.7,2.4,8.7,5.4s-3.9,5.4-8.7,5.4s-8.7-2.4-8.7-5.4S147.4,682.3,152.2,682.3z
		 M152.2,683.7L152.2,683.7c-3.7,0-6.8,1.8-6.8,4s3,4,6.8,4s6.8-1.8,6.8-4S155.9,683.7,152.2,683.7L152.2,683.7z"/>
	<path class="st43" d="M152.2,691.7c3.7,0,6.8-1.8,6.8-4s-3-4-6.8-4s-6.8,1.8-6.8,4S148.5,691.7,152.2,691.7z"/>
	<path class="st44" d="M149.9,689.8v4.5c-0.5,0.5-1.5,0.3-1.5,0.3h-1.7c-0.6,0.1-1.2,0-1.7-0.3v-6.7c0.4-0.1,0.8-0.2,1.2-0.3v-1.5
		c-0.5-1.3,1.8-2.2,1.8-2.2h14.1c0,0,2.3,0.9,1.1,2.2v1.5c1.2,0.1,1.2,0.2,1.2,0.3v6.7c0,0.5-1,0.3-1,0.3h-1.7c-0.6,0-1-0.4-1-1
		v-3.9h-1.2v3.9c0,0.6-0.4,1-1,1h-1.7c-0.6,0-1-0.4-1-1v-3.9h-1.2v3.9c0,0.6-0.4,1-1,1h-2c0,0-1,0.2-0.6-0.3v-4.5H149.9L149.9,689.8
		z"/>
	<path class="st21" d="M225.8,682.3c-4.8,0-8.7,2.4-8.7,5.4s3.9,5.4,8.7,5.4s8.7-2.4,8.7-5.4S230.6,682.3,225.8,682.3z M225.8,683.7
		L225.8,683.7c3.7,0,6.8,1.8,6.8,4s-3,4-6.8,4s-6.8-1.8-6.8-4S222.1,683.7,225.8,683.7L225.8,683.7z"/>
	<path class="st43" d="M225.8,691.7c3.7,0,6.8-1.8,6.8-4s-3-4-6.8-4s-6.8,1.8-6.8,4S222.1,691.7,225.8,691.7z"/>
	<path class="st44" d="M227.9,689.8v4.5c0.5,0.3,1.1,0.4,1.6,0.3h1.7c0,0,1,0.2,0.3-0.3v-6.7c0.7-0.1,0.7-0.2,1.2-0.3v-1.5
		c-0.6-1.3-2.9-2.2-2.9-2.2h-14.1c0,0-2.3,0.9-2.5,2.2v1.5c0.2,0.1,0.2,0.2,1.2,0.3v6.7c-1,0.5-0.1,0.3-0.1,0.3h1.5c0.6,0,1-0.4,1-1
		v-3.9h1.2v3.9c0,0.6,0.4,1,1,1h1.7c0.6,0,1-0.4,1-1v-3.9h1.2v3.9c0,0.6,0.4,1,1,1h2.2c0,0,1,0.2,0.5-0.3v-4.5H227.9L227.9,689.8z"
		/>
	<path class="st45" d="M177.5,625l11.6,22.5l11.4-22.5c0.6,0.4,1.2,0.7,1.8,1l-13.2,25.8l-13.3-26C176.4,625.5,177,625.2,177.5,625
		L177.5,625z"/>
	<path class="st17" d="M150.8,638.6h77.5c2.5,0,4.5,2,4.5,4.5v43.4c0,2.5-2,4.5-4.5,4.5h-77.5c-2.5,0-4.5-2-4.5-4.5v-43.4
		C146.2,640.6,148.3,638.6,150.8,638.6z"/>
	<path class="st46" d="M148,692.2h83.1c0.9,0,1.7,0.8,1.7,1.7c0,0,0,0,0,0v3.9c0,0.9-0.8,1.7-1.7,1.7H148c-0.9,0-1.7-0.8-1.7-1.7
		V694C146.2,693,147,692.2,148,692.2C147.9,692.2,147.9,692.2,148,692.2z"/>
	<path class="st21" d="M158.4,689.8h7.3v4.9h-7.3V689.8z M212.1,689.8h7.3v4.9h-7.3V689.8z"/>
	<path class="st21" d="M180.8,658.1H197c0.2,0,0.4,0.2,0.4,0.4l0,0v4.1c0,0.2-0.2,0.4-0.4,0.4c0,0,0,0,0,0h-16.3
		c-0.2,0-0.4-0.2-0.4-0.4l0,0v-4.1C180.4,658.2,180.5,658.1,180.8,658.1C180.8,658.1,180.8,658.1,180.8,658.1z"/>
	<circle class="st54" cx="796.7" cy="199.9" r="50.7"/>
	<path class="st17" d="M822.8,168.4v62.4c0,1.1-0.9,1.9-1.9,1.9h-48.3c-1.1,0-1.9-0.9-1.9-1.9v-62.4c0-1.1,0.9-1.9,1.9-1.9h48.3
		C821.9,166.5,822.8,167.3,822.8,168.4z"/>
	<rect x="776.8" y="185.9" class="st55" width="8.8" height="8.8"/>
	<rect x="776.8" y="201.8" class="st56" width="8.8" height="8.8"/>
	<rect x="776.8" y="217.7" class="st57" width="8.8" height="8.8"/>
	<rect x="788.3" y="185.9" class="st58" width="28.3" height="1.8"/>
	<rect x="788.3" y="190.3" class="st58" width="15.9" height="1.8"/>
	<rect x="788.3" y="201.8" class="st58" width="28.3" height="1.8"/>
	<rect x="788.3" y="206.2" class="st58" width="15.9" height="1.8"/>
	<rect x="788.3" y="218.6" class="st58" width="28.3" height="1.8"/>
	<rect x="788.3" y="223" class="st58" width="15.9" height="1.8"/>
	<circle class="st59" cx="781.2" cy="319.4" r="38.2"/>
	<path class="st17" d="M800.8,295.6v47c0,0.8-0.6,1.4-1.4,1.4H763c-0.8,0-1.4-0.6-1.4-1.4v-47c0-0.8,0.6-1.4,1.4-1.4h36.4
		C800.2,294.2,800.8,294.8,800.8,295.6L800.8,295.6z"/>
	<rect x="766.2" y="308.9" class="st55" width="6.7" height="6.7"/>
	<rect x="766.2" y="320.8" class="st56" width="6.7" height="6.7"/>
	<rect x="766.2" y="332.8" class="st57" width="6.7" height="6.7"/>
	<rect x="774.9" y="308.9" class="st58" width="21.3" height="1.3"/>
	<rect x="774.9" y="312.2" class="st58" width="12" height="1.3"/>
	<rect x="774.9" y="320.8" class="st58" width="21.3" height="1.3"/>
	<rect x="774.9" y="324.2" class="st58" width="12" height="1.3"/>
	<rect x="774.9" y="333.5" class="st58" width="21.3" height="1.3"/>
	<rect x="774.9" y="336.8" class="st58" width="12" height="1.3"/>
	<circle class="st60" cx="833.4" cy="426.4" r="38.4"/>
	<path class="st17" d="M853.2,402.5v47.3c0,0.8-0.6,1.5-1.5,1.5l0,0h-36.6c-0.8,0-1.5-0.6-1.5-1.4v0v-47.3c0-0.8,0.6-1.5,1.5-1.5
		l0,0h36.6C852.5,401,853.2,401.7,853.2,402.5z"/>
	<rect x="818.4" y="415.8" class="st55" width="6.7" height="6.7"/>
	<rect x="818.4" y="427.8" class="st56" width="6.7" height="6.7"/>
	<rect x="818.4" y="439.9" class="st57" width="6.7" height="6.7"/>
	<rect x="827.1" y="415.8" class="st58" width="21.4" height="1.3"/>
	<rect x="827.1" y="419.1" class="st58" width="12" height="1.3"/>
	<rect x="827.1" y="427.8" class="st58" width="21.4" height="1.3"/>
	<rect x="827.1" y="431.2" class="st58" width="12" height="1.3"/>
	<rect x="827.1" y="440.5" class="st58" width="21.4" height="1.3"/>
	<rect x="827.1" y="443.9" class="st58" width="12" height="1.3"/>
	<circle class="st61" cx="778.5" cy="563.5" r="50.7"/>
	<path class="st17" d="M804.7,532v62.5c0,1.1-0.9,1.9-1.9,1.9h-48.3c-1.1,0-1.9-0.9-1.9-1.9V532c0-1.1,0.9-1.9,1.9-1.9h48.3
		C803.8,530.1,804.7,530.9,804.7,532z"/>
	<rect x="758.7" y="549.5" class="st55" width="8.8" height="8.8"/>
	<rect x="758.7" y="565.4" class="st56" width="8.8" height="8.8"/>
	<rect x="758.7" y="581.3" class="st57" width="8.8" height="8.8"/>
	<rect x="770.2" y="549.5" class="st58" width="28.3" height="1.8"/>
	<rect x="770.2" y="553.9" class="st58" width="15.9" height="1.8"/>
	<rect x="770.2" y="565.4" class="st58" width="28.3" height="1.8"/>
	<rect x="770.2" y="569.8" class="st58" width="15.9" height="1.8"/>
	<rect x="770.2" y="582.2" class="st58" width="28.3" height="1.8"/>
	<rect x="770.2" y="586.6" class="st58" width="15.9" height="1.8"/>
	<path class="st47" d="M296.7,338.1c33.1,0,60-26.9,60-60s-26.9-60-60-60s-60,26.9-60,60C236.8,311.2,263.6,338.1,296.7,338.1z"/>
	<path class="st40" d="M291.1,263.5h11.2l0.9,9.4l1.6,1.3l3.4,2.2l-11.5,27.2l-11.5-27.2l3.4-2.2l1.6-1.3L291.1,263.5z"/>
	<path class="st42" d="M287.6,275.4l-16.4,5.2c-1.2,0.8-2,1.9-2.4,3.2c-4.9,5.2-20.5,22.4-20.5,26.7c0,5.1,13.4,17.5,13.4,18h6.5v4
		h58v-4h5.8c0-0.4,13.4-12.8,13.4-18c0-4.4-15.7-21.5-20.5-26.7c-0.4-1.3-1.3-2.5-2.4-3.2l-16.3-5.2l-1.4,4.1l-7.9-0.4l-7.8,0.4
		L287.6,275.4L287.6,275.4z M267.9,305.4L267.9,305.4l2,8.1l-0.4,8.6l-1.7-1.9l-5.8-8.3L267.9,305.4L267.9,305.4z M325.5,320.1
		L325.5,320.1l-1.7,1.8l-0.4-10l2-6.6l5.8,6.4L325.5,320.1z"/>
	<path class="st41" d="M287.4,274.9l-2.2,0.7l11.5,28l11.6-27.9L306,275l-5.8,3.5h-6.9L287.4,274.9z"/>
	<path class="st45" d="M287.6,275.4l-3.5,1.1l-0.7,9c0,0,0.2,0.7,0.8,0.7l3.2,1.2c0.1,0.1,0.1,0.3,0,0.5l-2.7,1.9l9.5,17.8
		c0.9,0.1,1.8,0.1,2.7,0.1c0.9,0,1.8,0,2.7-0.1l9.5-17.8l-2.8-1.9c-0.1-0.1-0.1-0.3,0-0.5l3.2-1.2c0.6,0.1,0.8-0.7,0.8-0.7l-0.7-9
		l-3.4-1.1l-9.2,27.1L287.6,275.4L287.6,275.4z"/>
	<path class="st39" d="M309.8,244.8c0,0.9,0.3,1.7,0.3,2.6c3-0.6,1.5,8.4-0.1,9.6c-0.1,0.1-0.5-0.1-0.8-0.3
		c-0.6,3.3-5.6,12-8.8,15.7c-0.9,1-6.3,1-7.2,0c-3.3-3.6-8.3-12.5-8.9-15.8c-0.3,0.2-0.6,0.4-0.8,0.3c-1.7-1.2-3.1-10.1-0.1-9.6
		c0-0.8,0.3-1.7,0.3-2.6c0.2-6.9,6.4-10.4,13-10.4S309.5,237.9,309.8,244.8L309.8,244.8z"/>
	<path class="st38" d="M305.7,235.9c2.5,0.1,4.5,2.1,4.8,4.6c0.2,2.3,0.3,4.6,0.2,6.9c-1.2,0.3-2.1,1.3-2.2,2.6
		c-0.2,2.1-0.1,2.1-0.1,2.1l-0.7-0.2l-0.5-3.5c-3-1.9,0-4.7-3-5.3c-8.1,5.8-15.2,4.8-18.5,2.1c0,0,0.8,2.8,0.2,3.9
		c-0.3,0.8-0.4,1.7-0.2,2.6h-0.8c0,0,0.1-4.2-1.5-4.2C277,237,297.1,223.9,305.7,235.9L305.7,235.9z"/>
	<path class="st17" d="M290.1,272.1c-0.8,1.2-1.8,2.3-2.7,3.4l2.5,8.6l6.8-5C292.9,277.2,290.7,274.9,290.1,272.1L290.1,272.1z"/>
	<path class="st17" d="M303.3,272.1c0.8,1.2,1.8,2.3,2.7,3.4l-2.5,8.6l-6.8-5C300.5,277.2,302.7,274.9,303.3,272.1L303.3,272.1z"/>
	<path class="st21" d="M267.3,323.1c3.8,0,6.9,1.9,6.9,4.3c0,2.4-3.1,4.3-6.9,4.3s-6.9-1.9-6.9-4.3
		C260.4,325,263.5,323.1,267.3,323.1z M267.3,324.2L267.3,324.2c-3,0-5.4,1.4-5.4,3.2s2.4,3.2,5.4,3.2s5.4-1.4,5.4-3.2
		S270.3,324.2,267.3,324.2L267.3,324.2z"/>
	<path class="st43" d="M267.3,330.5c3,0,5.4-1.4,5.4-3.2s-2.4-3.2-5.4-3.2s-5.4,1.4-5.4,3.2S264.3,330.5,267.3,330.5z"/>
	<path class="st44" d="M265.1,329.5v3.2c0,0.4-0.3,0.8-0.8,0.8H263c0,0-0.8-0.4-0.9-0.9v-5.4c0.1-0.1,0.1-0.2,1-0.2v-1.2
		c-0.9-1,1-1.4,1-1.4h11.3c0,0,1.8,0.4,1.8,1.4v1.2c0.1,0.1,0.1,0.1,1,0.2v5.4c-0.9,0.4-1.7,0.9-1.7,0.9h-1.5
		c-0.4,0-0.8-0.3-0.8-0.8v-3.2h-1v3.2c0,0.4-0.3,0.8-0.8,0.8h-1.4c-0.4,0-0.8-0.3-0.8-0.8v-3.2h-1v3.2c0,0.4-0.3,0.8-0.8,0.8h-1.4
		c-0.4,0-0.8-0.3-0.8-0.8v-3.2H265.1z"/>
	<path class="st21" d="M326.1,323.1c-3.8,0-6.9,1.9-6.9,4.3c0,2.4,3.1,4.3,6.9,4.3s6.9-1.9,6.9-4.3C333,325,330,323.1,326.1,323.1z
		 M326.1,324.2L326.1,324.2c3,0,5.4,1.4,5.4,3.2s-2.4,3.1-5.4,3.1s-5.4-1.4-5.4-3.2S323.2,324.2,326.1,324.2L326.1,324.2z"/>
	<path class="st53" d="M326.1,330.5c3,0,5.4-1.4,5.4-3.2s-2.4-3.2-5.4-3.2s-5.4,1.4-5.4,3.2S323.2,330.5,326.1,330.5z"/>
	<path class="st44" d="M328.1,329.5v3.2c0,0.4,0.3,0.8,0.8,0.8l0,0h1.6c0,0,0.8-0.4,0.6-0.9v-5.4c0.2-0.1,0.2-0.2,1-0.2v-1.2
		c-0.8-0.7-1.7-1.2-2.7-1.4h-11.3c0,0-1.8,0.4-2,1.4v1.2c0.2,0.1,0.2,0.1,1,0.2v5.4c-0.8,0.4-0.1,0.9-0.1,0.9h1.3
		c0.4,0,0.8-0.3,0.8-0.8v-3.2h1v3.2c0,0.4,0.3,0.8,0.8,0.8l0,0h1.4c0.4,0,0.8-0.3,0.8-0.8c0,0,0,0,0,0v-3.2h1v3.2
		c0,0.4,0.3,0.8,0.8,0.8l0,0h1.4c0.4,0,0.8-0.3,0.8-0.8c0,0,0,0,0,0v-3.2H328.1z"/>
	<path class="st17" d="M265.7,289.5h61.8c2,0,3.6,1.6,3.6,3.6v33.8c0,2-1.6,3.6-3.6,3.6h-61.8c-2,0-3.6-1.6-3.6-3.6v-33.8
		C262.1,291.1,263.7,289.5,265.7,289.5z"/>
	<path class="st46" d="M263.5,332.5h66.3c0.7,0,1.4,0.6,1.4,1.4v2.3c0,0.7-0.6,1.4-1.4,1.4h-66.3c-0.7,0-1.4-0.6-1.4-1.4v-2.3
		C262.1,333.1,262.7,332.5,263.5,332.5z"/>
	<path class="st21" d="M272.1,330.5h6v4h-6V330.5z M315.1,330.5h6v4h-6V330.5z"/>
	<path class="st21" d="M290.2,304.5h13c0.2,0.6,0.3,0.8,0.9,1v2.9c-0.6,0.2-0.7,0.3-0.9,0.1h-13c-0.2,0.2-0.3,0.1-0.1-0.1v-2.9
		C289.9,305.3,290.1,305.2,290.2,304.5z"/>
</g>
</svg>
