<?xml version="1.0" encoding="utf-8"?>
<!-- Generator: Adobe Illustrator 15.0.0, SVG Export Plug-In . SVG Version: 6.00 Build 0)  -->
<!DOCTYPE svg PUBLIC "-//W3C//DTD SVG 1.1//EN" "http://www.w3.org/Graphics/SVG/1.1/DTD/svg11.dtd">
<svg version="1.1" id="Capa_1" xmlns="http://www.w3.org/2000/svg" xmlns:xlink="http://www.w3.org/1999/xlink" x="0px" y="0px"
	 width="482.136px" height="482.135px" viewBox="0 0 482.136 482.135" enable-background="new 0 0 482.136 482.135"
	 xml:space="preserve">
<g>
	<path d="M288.016,231.678l-28.17,28.168c-7.78,7.782-20.387,7.782-28.168,0l-9.389-9.39l9.389-9.389l9.39,9.389
		c2.594,2.588,6.802,2.593,9.391,0l28.167-28.168c2.588-2.591,2.588-6.802,0-9.394l-9.389-9.389c-2.589-2.587-6.802-2.587-9.391,0
		l-10.057,10.058c-4.662-2.743-9.96-3.92-15.206-3.566l15.875-15.88c7.78-7.778,20.393-7.778,28.167,0l9.391,9.389
		C295.796,211.284,295.796,223.899,288.016,231.678z M232.34,268.575l-10.051,10.05c-2.594,2.594-6.802,2.587-9.39,0l-9.39-9.39
		c-2.594-2.588-2.594-6.796,0-9.39l28.168-28.169c2.588-2.586,6.803-2.586,9.39,0l9.391,9.391l9.388-9.391l-9.388-9.389
		c-7.782-7.777-20.388-7.777-28.169,0l-28.169,28.168c-7.781,7.782-7.781,20.395,0,28.169l9.39,9.39
		c7.775,7.781,20.388,7.781,28.168,0l15.874-15.875C242.307,272.489,237.022,271.312,232.34,268.575z"/>
</g>
</svg>
