<?xml version="1.0" encoding="utf-8"?>
<!-- Generator: Adobe Illustrator 15.0.0, SVG Export Plug-In . SVG Version: 6.00 Build 0)  -->
<!DOCTYPE svg PUBLIC "-//W3C//DTD SVG 1.1//EN" "http://www.w3.org/Graphics/SVG/1.1/DTD/svg11.dtd">
<svg version="1.1" id="Logo" xmlns="http://www.w3.org/2000/svg" xmlns:xlink="http://www.w3.org/1999/xlink" x="0px" y="0px"
	 width="300px" height="50px" viewBox="0 0 300 50" enable-background="new 0 0 300 50" xml:space="preserve">
<path fill="#004B6B" d="M27.654,9.747l-5.839,5.153c-2.05-2.853-4.138-4.28-6.263-4.28c-1.034,0-1.88,0.277-2.539,0.831
	s-0.987,1.178-0.987,1.872c0,0.695,0.235,1.352,0.705,1.971c0.64,0.826,2.567,2.6,5.782,5.322c3.008,2.516,4.833,4.102,5.472,4.759
	c1.598,1.615,2.731,3.158,3.399,4.632c0.667,1.474,1.001,3.084,1.001,4.829c0,3.398-1.175,6.205-3.524,8.419
	c-2.349,2.216-5.412,3.323-9.189,3.323c-2.951,0-5.521-0.723-7.709-2.168C5.775,42.964,3.9,40.692,2.34,37.595l6.627-3.998
	c1.993,3.66,4.287,5.49,6.881,5.49c1.354,0,2.491-0.395,3.413-1.183s1.382-1.698,1.382-2.731c0-0.938-0.348-1.877-1.043-2.815
	c-0.696-0.938-2.229-2.375-4.598-4.309c-4.513-3.679-7.428-6.518-8.745-8.518c-1.316-1.999-1.974-3.994-1.974-5.983
	c0-2.872,1.095-5.336,3.285-7.392c2.189-2.056,4.891-3.083,8.105-3.083c2.067,0,4.036,0.479,5.906,1.436
	C23.449,5.466,25.474,7.212,27.654,9.747z"/>
<path fill="#004B6B" d="M65.048,21.094l-6.399,3.52c-1.203-1.257-2.392-2.13-3.566-2.619c-1.175-0.488-2.551-0.732-4.13-0.732
	c-2.875,0-5.202,0.857-6.978,2.572c-1.776,1.715-2.664,3.913-2.664,6.592c0,2.605,0.855,4.733,2.565,6.383s3.957,2.474,6.738,2.474
	c3.439,0,6.118-1.173,8.035-3.52l6.062,4.15c-3.285,4.272-7.922,6.408-13.91,6.408c-5.388,0-9.606-1.595-12.657-4.786
	c-3.051-3.191-4.576-6.927-4.576-11.207c0-2.966,0.741-5.697,2.224-8.194c1.483-2.496,3.553-4.458,6.209-5.885
	c2.656-1.426,5.627-2.14,8.912-2.14c3.041,0,5.772,0.605,8.194,1.816C61.528,17.138,63.509,18.86,65.048,21.094z"/>
<path fill="#004B6B" d="M72.003,3.073h7.631v14.923c1.501-1.295,3.013-2.267,4.533-2.914c1.521-0.648,3.06-0.972,4.618-0.972
	c3.041,0,5.603,1.052,7.687,3.154c1.783,1.821,2.675,4.496,2.675,8.024v20.246h-7.574V32.104c0-3.548-0.169-5.95-0.507-7.208
	c-0.338-1.257-0.916-2.196-1.732-2.816s-1.826-0.929-3.027-0.929c-1.559,0-2.896,0.517-4.013,1.549
	c-1.117,1.033-1.891,2.44-2.323,4.224c-0.226,0.92-0.338,3.022-0.338,6.308v12.305h-7.631V3.073z"/>
<path fill="#004B6B" d="M120.97,14.111c2.891,0,5.608,0.723,8.152,2.168c2.543,1.445,4.528,3.407,5.956,5.885
	c1.426,2.478,2.14,5.153,2.14,8.025c0,2.891-0.718,5.594-2.154,8.109s-3.393,4.481-5.871,5.898
	c-2.478,1.418-5.209,2.126-8.194,2.126c-4.393,0-8.143-1.562-11.249-4.688c-3.107-3.126-4.66-6.923-4.66-11.391
	c0-4.786,1.755-8.775,5.266-11.967C113.433,15.5,116.971,14.111,120.97,14.111z M121.097,21.348c-2.388,0-4.377,0.831-5.966,2.492
	c-1.589,1.662-2.383,3.788-2.383,6.377c0,2.666,0.785,4.825,2.355,6.477c1.57,1.652,3.558,2.479,5.965,2.479
	c2.407,0,4.409-0.836,6.008-2.507c1.598-1.67,2.397-3.819,2.397-6.448c0-2.628-0.786-4.763-2.355-6.405
	C125.548,22.169,123.541,21.348,121.097,21.348z"/>
<path fill="#004B6B" d="M142.651,3.073h7.687v42.462h-7.687V3.073z"/>
<path fill="#3B3E3F" d="M179.926,14.899h7.687v30.636h-7.687v-3.238c-1.501,1.427-3.006,2.455-4.515,3.083
	c-1.51,0.629-3.146,0.943-4.908,0.943c-3.956,0-7.378-1.534-10.266-4.604c-2.887-3.069-4.331-6.885-4.331-11.446
	c0-4.73,1.397-8.606,4.191-11.629c2.793-3.022,6.187-4.534,10.181-4.534c1.838,0,3.562,0.348,5.175,1.042
	c1.612,0.695,3.103,1.736,4.473,3.125V14.899z M171.845,21.207c-2.377,0-4.351,0.84-5.922,2.521s-2.357,3.834-2.357,6.462
	c0,2.646,0.8,4.824,2.399,6.532s3.568,2.562,5.907,2.562c2.414,0,4.416-0.84,6.006-2.521c1.59-1.68,2.386-3.881,2.386-6.603
	c0-2.665-0.796-4.824-2.386-6.477C176.288,22.033,174.276,21.207,171.845,21.207z"/>
<path fill="#3B3E3F" d="M195.384,14.899h7.688v3.14c1.743-1.47,3.322-2.492,4.737-3.066c1.415-0.574,2.863-0.862,4.344-0.862
	c3.037,0,5.614,1.061,7.732,3.182c1.781,1.802,2.672,4.468,2.672,7.996v20.246h-7.604V32.119c0-3.656-0.164-6.084-0.491-7.284
	c-0.328-1.2-0.899-2.114-1.714-2.742s-1.821-0.942-3.02-0.942c-1.555,0-2.889,0.521-4.003,1.561
	c-1.114,1.041-1.887,2.48-2.317,4.318c-0.225,0.956-0.337,3.027-0.337,6.215v12.291h-7.688V14.899z"/>
<path fill="#3B3E3F" d="M259.979,21.094l-6.399,3.52c-1.203-1.257-2.392-2.13-3.566-2.619c-1.175-0.488-2.552-0.732-4.13-0.732
	c-2.876,0-5.202,0.857-6.978,2.572c-1.776,1.715-2.664,3.913-2.664,6.592c0,2.605,0.855,4.733,2.565,6.383s3.956,2.474,6.738,2.474
	c3.439,0,6.117-1.173,8.034-3.52l6.062,4.15c-3.285,4.272-7.922,6.408-13.91,6.408c-5.388,0-9.606-1.595-12.657-4.786
	s-4.575-6.927-4.575-11.207c0-2.966,0.741-5.697,2.225-8.194c1.482-2.496,3.552-4.458,6.209-5.885
	c2.655-1.426,5.626-2.14,8.911-2.14c3.041,0,5.772,0.605,8.194,1.816C256.459,17.138,258.439,18.86,259.979,21.094z"/>
<path fill="#3B3E3F" d="M297.598,32.441h-24.694c0.356,2.178,1.309,3.91,2.857,5.195c1.549,1.286,3.524,1.929,5.928,1.929
	c2.872,0,5.34-1.004,7.405-3.013l6.477,3.041c-1.615,2.291-3.548,3.984-5.801,5.083c-2.253,1.098-4.928,1.646-8.025,1.646
	c-4.806,0-8.72-1.516-11.741-4.547c-3.022-3.031-4.533-6.828-4.533-11.391c0-4.674,1.506-8.555,4.519-11.643
	c3.014-3.087,6.791-4.632,11.334-4.632c4.824,0,8.747,1.544,11.77,4.632c3.022,3.088,4.534,7.167,4.534,12.235L297.598,32.441z
	 M289.91,26.388c-0.508-1.708-1.509-3.097-3.004-4.167c-1.495-1.07-3.229-1.605-5.204-1.605c-2.144,0-4.023,0.601-5.641,1.802
	c-1.016,0.751-1.956,2.075-2.82,3.97H289.91z"/>
</svg>
